<svg width="32px" height="32px" viewBox="0 0 40 40" version="1.1" xmlns="http://www.w3.org/2000/svg" xmlns:xlink="http://www.w3.org/1999/xlink">
    <defs>
        <polygon id="path-1" points="5.33333333e-05 0.0466666667 39.8714667 0.0466666667 39.8714667 33.9633067 5.33333333e-05 33.9633067"></polygon>
    </defs>
    <g id="Symbols" stroke="none" stroke-width="1" fill="none" fill-rule="evenodd">
        <g id="atom/cart/open/active" transform="translate(-23.000000, -19.000000)">
            <g id="Cart">
                <g id="Group-8" transform="translate(23.000000, 19.000000)">
                    <g id="Group-3" transform="translate(0.000000, 0.220000)">
                        <mask id="mask-2" fill="white">
                            <use xlink:href="#path-1"></use>
                        </mask>
                        <g id="Clip-2"></g>
                        <path d="M9.15925333,9.67370667 L35.27712,9.67370667 L32.9725867,21.5553067 L11.50992,21.5553067 L9.15925333,9.67370667 Z M8.68165333,27.07904 C7.67338667,27.07904 6.85312,26.2585067 6.85312,25.25024 C6.85312,24.24224 7.67338667,23.4219733 8.68165333,23.4219733 L34.5120533,23.4219733 L37.5408533,7.80704 L8.78992,7.80704 L7.25445333,0.0465066667 L5.33333333e-05,0.0465066667 L5.33333333e-05,1.91317333 L5.72085333,1.91317333 L9.60698667,21.5553067 L8.63125333,21.5553067 L8.63125333,21.5577067 C6.61712,21.5851733 4.98645333,23.2299733 4.98645333,25.25024 C4.98645333,27.2321067 6.55578667,28.8499733 8.51658667,28.9371733 L8.51658667,28.9457067 L34.77872,28.9457067 L38.35072,33.9633067 L39.87152,32.8803733 L35.74112,27.07904 L8.68165333,27.07904 Z" id="Fill-1" fill="#FFFFFF" mask="url(#mask-2)"></path>
                    </g>
                    <path d="M14.4190133,37.2866667 C12.9486133,37.2866667 11.7523467,36.0904 11.7523467,34.62 C11.7523467,33.1496 12.9486133,31.9533333 14.4190133,31.9533333 C15.8894133,31.9533333 17.08568,33.1496 17.08568,34.62 C17.08568,36.0904 15.8894133,37.2866667 14.4190133,37.2866667 M14.4190133,30.0866667 C11.91928,30.0866667 9.88568,32.1202667 9.88568,34.62 C9.88568,37.1197333 11.91928,39.1533333 14.4190133,39.1533333 C16.9187467,39.1533333 18.9523467,37.1197333 18.9523467,34.62 C18.9523467,32.1202667 16.9187467,30.0866667 14.4190133,30.0866667" id="Fill-4" fill="#FFFFFF"></path>
                    <path d="M30.27552,37.2866667 C28.80512,37.2866667 27.6088533,36.0904 27.6088533,34.62 C27.6088533,33.1496 28.80512,31.9533333 30.27552,31.9533333 C31.74592,31.9533333 32.9421867,33.1496 32.9421867,34.62 C32.9421867,36.0904 31.74592,37.2866667 30.27552,37.2866667 M30.27552,30.0866667 C27.7757867,30.0866667 25.7421867,32.1202667 25.7421867,34.62 C25.7421867,37.1197333 27.7757867,39.1533333 30.27552,39.1533333 C32.7752533,39.1533333 34.8088533,37.1197333 34.8088533,34.62 C34.8088533,32.1202667 32.7752533,30.0866667 30.27552,30.0866667" id="Fill-6" fill="#FFFFFF"></path>
                </g>
            </g>
        </g>
    </g>
</svg>