<?xml version="1.0" encoding="utf-8"?>
<!-- Generator: Adobe Illustrator 23.0.4, SVG Export Plug-In . SVG Version: 6.00 Build 0)  -->
<svg version="1.1" id="Layer_1" xmlns="http://www.w3.org/2000/svg" xmlns:xlink="http://www.w3.org/1999/xlink" x="0px" y="0px"
	 viewBox="0 0 245.1 106.5" style="enable-background:new 0 0 245.1 106.5;" xml:space="preserve">
<style type="text/css">
	.st0{fill:#4D4D4D;}
	.st1{fill:#00B1B0;}
	.st2{fill:#C1D730;}
</style>
<g>
	<path class="st0" d="M106,30.1c-0.1-0.2-0.3-0.4-0.5-0.5c-0.2-0.2-0.4-0.3-0.7-0.4c-0.2-0.1-0.5-0.1-0.8-0.1
		c-0.5,0-0.9,0.1-1.2,0.3c-0.3,0.2-0.6,0.4-0.8,0.8s-0.4,0.7-0.5,1.1c-0.1,0.4-0.1,0.8-0.1,1.3c0,0.4,0,0.8,0.1,1.2
		c0.1,0.4,0.2,0.7,0.5,1.1s0.5,0.6,0.8,0.7c0.3,0.2,0.8,0.3,1.2,0.3c0.7,0,1.2-0.2,1.5-0.6c0.4-0.4,0.6-0.9,0.7-1.6h2.1
		c-0.1,0.6-0.2,1.2-0.4,1.7c-0.2,0.5-0.5,0.9-0.9,1.3c-0.4,0.3-0.8,0.6-1.3,0.8c-0.5,0.2-1.1,0.3-1.7,0.3c-0.8,0-1.4-0.1-2-0.4
		c-0.6-0.3-1.1-0.6-1.5-1.1c-0.4-0.5-0.7-1-0.9-1.6c-0.2-0.6-0.3-1.3-0.3-2c0-0.7,0.1-1.4,0.3-2s0.5-1.2,0.9-1.6
		c0.4-0.5,0.9-0.8,1.5-1.1c0.6-0.3,1.3-0.4,2-0.4c0.5,0,1.1,0.1,1.5,0.2s0.9,0.4,1.3,0.7c0.4,0.3,0.7,0.7,0.9,1.1
		c0.2,0.4,0.4,0.9,0.5,1.5h-2.1C106.2,30.5,106.2,30.3,106,30.1z"/>
	<path class="st0" d="M109.8,32.4c0-0.5,0.1-0.8,0.3-1.1c0.2-0.3,0.5-0.5,0.8-0.7c0.3-0.2,0.7-0.3,1.1-0.4c0.4-0.1,0.8-0.1,1.2-0.1
		c0.4,0,0.7,0,1.1,0.1c0.4,0.1,0.7,0.1,1,0.3s0.6,0.4,0.7,0.6c0.2,0.3,0.3,0.6,0.3,1v3.7c0,0.3,0,0.6,0.1,0.9c0,0.3,0.1,0.5,0.2,0.7
		h-2c0-0.1-0.1-0.2-0.1-0.3c0-0.1,0-0.2,0-0.4c-0.3,0.3-0.7,0.5-1.1,0.7c-0.4,0.1-0.9,0.2-1.3,0.2c-0.3,0-0.7,0-0.9-0.1
		c-0.3-0.1-0.5-0.2-0.8-0.4c-0.2-0.2-0.4-0.4-0.5-0.7c-0.1-0.3-0.2-0.6-0.2-0.9c0-0.4,0.1-0.7,0.2-1c0.1-0.3,0.3-0.5,0.5-0.6
		c0.2-0.2,0.5-0.3,0.8-0.4c0.3-0.1,0.6-0.1,0.9-0.2c0.3,0,0.6-0.1,0.9-0.1c0.3,0,0.5-0.1,0.8-0.1c0.2-0.1,0.4-0.1,0.5-0.2
		c0.1-0.1,0.2-0.3,0.2-0.5c0-0.2,0-0.4-0.1-0.5c-0.1-0.1-0.2-0.2-0.3-0.3c-0.1-0.1-0.2-0.1-0.4-0.1c-0.2,0-0.3,0-0.5,0
		c-0.4,0-0.7,0.1-0.9,0.2c-0.2,0.2-0.3,0.4-0.4,0.8H109.8z M114.3,33.8c-0.1,0.1-0.2,0.1-0.3,0.2c-0.1,0-0.3,0.1-0.4,0.1
		c-0.1,0-0.3,0.1-0.4,0.1s-0.3,0-0.5,0.1c-0.1,0-0.3,0.1-0.4,0.1s-0.3,0.1-0.4,0.2s-0.2,0.2-0.3,0.3c-0.1,0.1-0.1,0.3-0.1,0.5
		c0,0.2,0,0.3,0.1,0.4c0.1,0.1,0.2,0.2,0.3,0.3c0.1,0.1,0.2,0.1,0.4,0.1c0.1,0,0.3,0,0.5,0c0.4,0,0.7-0.1,0.9-0.2
		c0.2-0.1,0.4-0.3,0.5-0.5c0.1-0.2,0.2-0.4,0.2-0.5c0-0.2,0-0.3,0-0.4V33.8z"/>
	<path class="st0" d="M119.9,30.2v1h0c0.2-0.4,0.6-0.7,1-0.9c0.4-0.2,0.8-0.3,1.2-0.3c0.5,0,1,0.1,1.3,0.2c0.3,0.1,0.6,0.3,0.8,0.6
		c0.2,0.3,0.3,0.6,0.4,0.9c0.1,0.4,0.1,0.8,0.1,1.2v4.4h-2v-4c0-0.6-0.1-1-0.3-1.3c-0.2-0.3-0.5-0.4-1-0.4c-0.5,0-0.9,0.2-1.2,0.5
		c-0.2,0.3-0.4,0.8-0.4,1.6v3.7h-2v-7.1H119.9z"/>
	<path class="st0" d="M126.4,32.4c0-0.5,0.1-0.8,0.3-1.1c0.2-0.3,0.5-0.5,0.8-0.7c0.3-0.2,0.7-0.3,1.1-0.4c0.4-0.1,0.8-0.1,1.2-0.1
		c0.4,0,0.7,0,1.1,0.1c0.4,0.1,0.7,0.1,1,0.3s0.6,0.4,0.7,0.6c0.2,0.3,0.3,0.6,0.3,1v3.7c0,0.3,0,0.6,0.1,0.9c0,0.3,0.1,0.5,0.2,0.7
		h-2c0-0.1-0.1-0.2-0.1-0.3c0-0.1,0-0.2,0-0.4c-0.3,0.3-0.7,0.5-1.1,0.7c-0.4,0.1-0.9,0.2-1.3,0.2c-0.3,0-0.7,0-0.9-0.1
		c-0.3-0.1-0.5-0.2-0.8-0.4c-0.2-0.2-0.4-0.4-0.5-0.7c-0.1-0.3-0.2-0.6-0.2-0.9c0-0.4,0.1-0.7,0.2-1c0.1-0.3,0.3-0.5,0.5-0.6
		c0.2-0.2,0.5-0.3,0.8-0.4c0.3-0.1,0.6-0.1,0.9-0.2c0.3,0,0.6-0.1,0.9-0.1c0.3,0,0.5-0.1,0.8-0.1c0.2-0.1,0.4-0.1,0.5-0.2
		c0.1-0.1,0.2-0.3,0.2-0.5c0-0.2,0-0.4-0.1-0.5c-0.1-0.1-0.2-0.2-0.3-0.3c-0.1-0.1-0.2-0.1-0.4-0.1c-0.2,0-0.3,0-0.5,0
		c-0.4,0-0.7,0.1-0.9,0.2c-0.2,0.2-0.3,0.4-0.4,0.8H126.4z M131,33.8c-0.1,0.1-0.2,0.1-0.3,0.2c-0.1,0-0.3,0.1-0.4,0.1
		c-0.1,0-0.3,0.1-0.4,0.1s-0.3,0-0.5,0.1c-0.1,0-0.3,0.1-0.4,0.1s-0.3,0.1-0.4,0.2s-0.2,0.2-0.3,0.3c-0.1,0.1-0.1,0.3-0.1,0.5
		c0,0.2,0,0.3,0.1,0.4c0.1,0.1,0.2,0.2,0.3,0.3c0.1,0.1,0.2,0.1,0.4,0.1c0.1,0,0.3,0,0.5,0c0.4,0,0.7-0.1,0.9-0.2
		c0.2-0.1,0.4-0.3,0.5-0.5c0.1-0.2,0.2-0.4,0.2-0.5c0-0.2,0-0.3,0-0.4V33.8z"/>
	<path class="st0" d="M139.7,36.4c-0.2,0.4-0.5,0.7-0.9,0.8c-0.4,0.2-0.8,0.3-1.3,0.3c-0.5,0-1-0.1-1.4-0.3s-0.7-0.5-1-0.8
		c-0.3-0.4-0.5-0.8-0.6-1.2c-0.1-0.5-0.2-0.9-0.2-1.4c0-0.5,0.1-0.9,0.2-1.4c0.1-0.4,0.3-0.8,0.6-1.2s0.6-0.6,1-0.8
		c0.4-0.2,0.9-0.3,1.4-0.3c0.4,0,0.8,0.1,1.2,0.3s0.7,0.4,0.9,0.8h0v-3.6h2v9.8h-1.9L139.7,36.4L139.7,36.4z M139.6,32.9
		c-0.1-0.3-0.1-0.5-0.3-0.7c-0.1-0.2-0.3-0.4-0.5-0.5c-0.2-0.1-0.5-0.2-0.8-0.2c-0.3,0-0.6,0.1-0.8,0.2c-0.2,0.1-0.4,0.3-0.5,0.5
		c-0.1,0.2-0.2,0.5-0.3,0.7c-0.1,0.3-0.1,0.6-0.1,0.8c0,0.3,0,0.5,0.1,0.8s0.2,0.5,0.3,0.7c0.1,0.2,0.3,0.4,0.5,0.5
		c0.2,0.1,0.5,0.2,0.8,0.2c0.3,0,0.6-0.1,0.8-0.2c0.2-0.1,0.4-0.3,0.5-0.5c0.1-0.2,0.2-0.5,0.3-0.7c0.1-0.3,0.1-0.6,0.1-0.9
		C139.7,33.4,139.7,33.2,139.6,32.9z"/>
	<path class="st0" d="M143.4,29.1v-1.6h2v1.6H143.4z M145.4,30.2v7.1h-2v-7.1H145.4z"/>
	<path class="st0" d="M147.1,32.4c0-0.5,0.1-0.8,0.3-1.1c0.2-0.3,0.5-0.5,0.8-0.7c0.3-0.2,0.7-0.3,1.1-0.4c0.4-0.1,0.8-0.1,1.2-0.1
		c0.4,0,0.7,0,1.1,0.1s0.7,0.1,1,0.3c0.3,0.1,0.5,0.4,0.7,0.6c0.2,0.3,0.3,0.6,0.3,1v3.7c0,0.3,0,0.6,0.1,0.9c0,0.3,0.1,0.5,0.2,0.7
		h-2c0-0.1-0.1-0.2-0.1-0.3c0-0.1,0-0.2,0-0.4c-0.3,0.3-0.7,0.5-1.1,0.7s-0.9,0.2-1.3,0.2c-0.3,0-0.7,0-0.9-0.1
		c-0.3-0.1-0.5-0.2-0.8-0.4c-0.2-0.2-0.4-0.4-0.5-0.7c-0.1-0.3-0.2-0.6-0.2-0.9c0-0.4,0.1-0.7,0.2-1c0.1-0.3,0.3-0.5,0.6-0.6
		c0.2-0.2,0.5-0.3,0.8-0.4c0.3-0.1,0.6-0.1,0.9-0.2s0.6-0.1,0.9-0.1c0.3,0,0.5-0.1,0.8-0.1c0.2-0.1,0.4-0.1,0.5-0.2
		c0.1-0.1,0.2-0.3,0.2-0.5c0-0.2,0-0.4-0.1-0.5s-0.2-0.2-0.3-0.3c-0.1-0.1-0.2-0.1-0.4-0.1c-0.2,0-0.3,0-0.5,0
		c-0.4,0-0.7,0.1-0.9,0.2s-0.3,0.4-0.4,0.8H147.1z M151.6,33.8c-0.1,0.1-0.2,0.1-0.3,0.2s-0.3,0.1-0.4,0.1c-0.1,0-0.3,0.1-0.4,0.1
		c-0.2,0-0.3,0-0.5,0.1c-0.1,0-0.3,0.1-0.4,0.1c-0.1,0-0.3,0.1-0.4,0.2s-0.2,0.2-0.3,0.3s-0.1,0.3-0.1,0.5c0,0.2,0,0.3,0.1,0.4
		s0.2,0.2,0.3,0.3c0.1,0.1,0.2,0.1,0.4,0.1s0.3,0,0.5,0c0.4,0,0.7-0.1,0.9-0.2c0.2-0.1,0.4-0.3,0.5-0.5c0.1-0.2,0.2-0.4,0.2-0.5
		c0-0.2,0-0.3,0-0.4V33.8z"/>
	<path class="st0" d="M157.2,30.2v1h0c0.2-0.4,0.6-0.7,1-0.9c0.4-0.2,0.8-0.3,1.2-0.3c0.5,0,1,0.1,1.3,0.2c0.3,0.1,0.6,0.3,0.8,0.6
		s0.3,0.6,0.4,0.9c0.1,0.4,0.1,0.8,0.1,1.2v4.4h-2v-4c0-0.6-0.1-1-0.3-1.3c-0.2-0.3-0.5-0.4-1-0.4c-0.5,0-0.9,0.2-1.2,0.5
		c-0.2,0.3-0.4,0.8-0.4,1.6v3.7h-2v-7.1H157.2z"/>
	<path class="st0" d="M171,27.5l2.3,6.8h0l2.2-6.8h3v9.8h-2v-7h0l-2.4,7h-1.7l-2.4-6.9h0v6.9h-2v-9.8H171z"/>
	<path class="st0" d="M182.6,35.6c0.3,0.3,0.7,0.4,1.3,0.4c0.4,0,0.7-0.1,1-0.3c0.3-0.2,0.5-0.4,0.5-0.6h1.7
		c-0.3,0.9-0.7,1.5-1.3,1.8s-1.3,0.5-2.1,0.5c-0.6,0-1.1-0.1-1.5-0.3c-0.4-0.2-0.8-0.4-1.1-0.8c-0.3-0.3-0.6-0.7-0.7-1.2
		c-0.2-0.5-0.3-1-0.3-1.5c0-0.5,0.1-1,0.3-1.5c0.2-0.5,0.4-0.9,0.7-1.2c0.3-0.3,0.7-0.6,1.1-0.8c0.4-0.2,0.9-0.3,1.5-0.3
		c0.6,0,1.1,0.1,1.6,0.4c0.4,0.2,0.8,0.5,1.1,0.9c0.3,0.4,0.5,0.8,0.6,1.3s0.2,1,0.1,1.6h-5.1C182.2,34.9,182.3,35.3,182.6,35.6z
		 M184.8,31.9c-0.2-0.3-0.6-0.4-1.1-0.4c-0.3,0-0.6,0.1-0.8,0.2s-0.4,0.2-0.5,0.4c-0.1,0.2-0.2,0.3-0.3,0.5c0,0.2-0.1,0.3-0.1,0.5
		h3.2C185.2,32.5,185.1,32.1,184.8,31.9z"/>
	<path class="st0" d="M190.6,30.2v1h0c0.2-0.4,0.6-0.7,1-0.9c0.4-0.2,0.8-0.3,1.2-0.3c0.5,0,1,0.1,1.3,0.2c0.3,0.1,0.6,0.3,0.8,0.6
		s0.3,0.6,0.4,0.9c0.1,0.4,0.1,0.8,0.1,1.2v4.4h-2v-4c0-0.6-0.1-1-0.3-1.3c-0.2-0.3-0.5-0.4-1-0.4c-0.5,0-0.9,0.2-1.2,0.5
		c-0.2,0.3-0.4,0.8-0.4,1.6v3.7h-2v-7.1H190.6z"/>
	<path class="st0" d="M201,30.2v1.3h-1.4V35c0,0.3,0.1,0.5,0.2,0.7c0.1,0.1,0.3,0.2,0.7,0.2c0.1,0,0.2,0,0.3,0c0.1,0,0.2,0,0.3,0
		v1.5c-0.2,0-0.3,0-0.5,0.1c-0.2,0-0.4,0-0.6,0c-0.3,0-0.6,0-0.9-0.1c-0.3,0-0.5-0.1-0.7-0.2c-0.2-0.1-0.4-0.3-0.5-0.5
		c-0.1-0.2-0.2-0.5-0.2-0.9v-4.2h-1.2v-1.3h1.2v-2.1h2v2.1H201z"/>
	<path class="st0" d="M202.3,32.4c0-0.5,0.1-0.8,0.3-1.1c0.2-0.3,0.5-0.5,0.8-0.7c0.3-0.2,0.7-0.3,1.1-0.4c0.4-0.1,0.8-0.1,1.2-0.1
		c0.4,0,0.7,0,1.1,0.1s0.7,0.1,1,0.3c0.3,0.1,0.5,0.4,0.7,0.6c0.2,0.3,0.3,0.6,0.3,1v3.7c0,0.3,0,0.6,0.1,0.9c0,0.3,0.1,0.5,0.2,0.7
		h-2c0-0.1-0.1-0.2-0.1-0.3c0-0.1,0-0.2,0-0.4c-0.3,0.3-0.7,0.5-1.1,0.7s-0.9,0.2-1.3,0.2c-0.3,0-0.7,0-0.9-0.1
		c-0.3-0.1-0.5-0.2-0.8-0.4c-0.2-0.2-0.4-0.4-0.5-0.7c-0.1-0.3-0.2-0.6-0.2-0.9c0-0.4,0.1-0.7,0.2-1c0.1-0.3,0.3-0.5,0.6-0.6
		c0.2-0.2,0.5-0.3,0.8-0.4c0.3-0.1,0.6-0.1,0.9-0.2s0.6-0.1,0.9-0.1c0.3,0,0.5-0.1,0.8-0.1c0.2-0.1,0.4-0.1,0.5-0.2
		c0.1-0.1,0.2-0.3,0.2-0.5c0-0.2,0-0.4-0.1-0.5s-0.2-0.2-0.3-0.3c-0.1-0.1-0.2-0.1-0.4-0.1c-0.2,0-0.3,0-0.5,0
		c-0.4,0-0.7,0.1-0.9,0.2s-0.3,0.4-0.4,0.8H202.3z M206.8,33.8c-0.1,0.1-0.2,0.1-0.3,0.2s-0.3,0.1-0.4,0.1c-0.1,0-0.3,0.1-0.4,0.1
		c-0.2,0-0.3,0-0.5,0.1c-0.1,0-0.3,0.1-0.4,0.1c-0.1,0-0.3,0.1-0.4,0.2c-0.1,0.1-0.2,0.2-0.3,0.3s-0.1,0.3-0.1,0.5
		c0,0.2,0,0.3,0.1,0.4s0.2,0.2,0.3,0.3c0.1,0.1,0.2,0.1,0.4,0.1s0.3,0,0.5,0c0.4,0,0.7-0.1,0.9-0.2c0.2-0.1,0.4-0.3,0.5-0.5
		c0.1-0.2,0.2-0.4,0.2-0.5c0-0.2,0-0.3,0-0.4V33.8z"/>
	<path class="st0" d="M212.5,27.5v9.8h-2v-9.8H212.5z"/>
	<path class="st0" d="M101.9,44v3.8h4V44h2.2v9.8h-2.2v-4.2h-4v4.2h-2.2V44H101.9z"/>
	<path class="st0" d="M112.1,52.1c0.3,0.3,0.7,0.4,1.3,0.4c0.4,0,0.7-0.1,1-0.3c0.3-0.2,0.5-0.4,0.5-0.6h1.7
		c-0.3,0.9-0.7,1.5-1.3,1.8s-1.3,0.5-2.1,0.5c-0.6,0-1.1-0.1-1.5-0.3c-0.4-0.2-0.8-0.4-1.1-0.8s-0.6-0.7-0.7-1.2
		c-0.2-0.5-0.3-1-0.3-1.5c0-0.5,0.1-1,0.3-1.5c0.2-0.5,0.4-0.9,0.7-1.2s0.7-0.6,1.1-0.8c0.4-0.2,0.9-0.3,1.5-0.3
		c0.6,0,1.1,0.1,1.6,0.4c0.4,0.2,0.8,0.5,1.1,0.9c0.3,0.4,0.5,0.8,0.6,1.3c0.1,0.5,0.2,1,0.1,1.6h-5.1
		C111.6,51.4,111.8,51.8,112.1,52.1z M114.3,48.4c-0.2-0.3-0.6-0.4-1.1-0.4c-0.3,0-0.6,0.1-0.8,0.2c-0.2,0.1-0.4,0.2-0.5,0.4
		c-0.1,0.2-0.2,0.3-0.3,0.5c0,0.2-0.1,0.3-0.1,0.5h3.2C114.7,49,114.5,48.6,114.3,48.4z"/>
	<path class="st0" d="M118,48.9c0-0.5,0.1-0.8,0.3-1.1c0.2-0.3,0.5-0.5,0.8-0.7c0.3-0.2,0.7-0.3,1.1-0.4c0.4-0.1,0.8-0.1,1.2-0.1
		c0.4,0,0.7,0,1.1,0.1s0.7,0.1,1,0.3c0.3,0.1,0.5,0.4,0.7,0.6c0.2,0.3,0.3,0.6,0.3,1v3.7c0,0.3,0,0.6,0.1,0.9c0,0.3,0.1,0.5,0.2,0.7
		h-2c0-0.1-0.1-0.2-0.1-0.3c0-0.1,0-0.2,0-0.4c-0.3,0.3-0.7,0.5-1.1,0.7s-0.9,0.2-1.3,0.2c-0.3,0-0.7,0-0.9-0.1
		c-0.3-0.1-0.5-0.2-0.8-0.4c-0.2-0.2-0.4-0.4-0.5-0.7c-0.1-0.3-0.2-0.6-0.2-0.9c0-0.4,0.1-0.7,0.2-1c0.1-0.3,0.3-0.5,0.6-0.6
		c0.2-0.2,0.5-0.3,0.8-0.4c0.3-0.1,0.6-0.1,0.9-0.2s0.6-0.1,0.9-0.1c0.3,0,0.5-0.1,0.8-0.1c0.2-0.1,0.4-0.1,0.5-0.2
		c0.1-0.1,0.2-0.3,0.2-0.5c0-0.2,0-0.4-0.1-0.5s-0.2-0.2-0.3-0.3c-0.1-0.1-0.2-0.1-0.4-0.1c-0.2,0-0.3,0-0.5,0
		c-0.4,0-0.7,0.1-0.9,0.2s-0.3,0.4-0.4,0.8H118z M122.5,50.3c-0.1,0.1-0.2,0.1-0.3,0.2s-0.3,0.1-0.4,0.1c-0.1,0-0.3,0.1-0.4,0.1
		c-0.2,0-0.3,0-0.5,0.1c-0.1,0-0.3,0.1-0.4,0.1c-0.1,0-0.3,0.1-0.4,0.2s-0.2,0.2-0.3,0.3s-0.1,0.3-0.1,0.5c0,0.2,0,0.3,0.1,0.4
		s0.2,0.2,0.3,0.3c0.1,0.1,0.2,0.1,0.4,0.1s0.3,0,0.5,0c0.4,0,0.7-0.1,0.9-0.2c0.2-0.1,0.4-0.3,0.5-0.5c0.1-0.2,0.2-0.4,0.2-0.5
		c0-0.2,0-0.3,0-0.4V50.3z"/>
	<path class="st0" d="M128.3,44v9.8h-2V44H128.3z"/>
	<path class="st0" d="M134,46.7V48h-1.4v3.5c0,0.3,0.1,0.5,0.2,0.7c0.1,0.1,0.3,0.2,0.7,0.2c0.1,0,0.2,0,0.3,0c0.1,0,0.2,0,0.3,0
		v1.5c-0.2,0-0.3,0-0.5,0.1c-0.2,0-0.4,0-0.6,0c-0.3,0-0.6,0-0.9-0.1c-0.3,0-0.5-0.1-0.7-0.2c-0.2-0.1-0.4-0.3-0.5-0.5
		c-0.1-0.2-0.2-0.5-0.2-0.9V48h-1.2v-1.3h1.2v-2.1h2v2.1H134z"/>
	<path class="st0" d="M137.3,44v3.7h0c0.2-0.4,0.6-0.7,0.9-0.9c0.4-0.2,0.8-0.3,1.1-0.3c0.5,0,1,0.1,1.3,0.2
		c0.3,0.1,0.6,0.3,0.8,0.6s0.3,0.6,0.4,0.9c0.1,0.4,0.1,0.8,0.1,1.2v4.4h-2v-4c0-0.6-0.1-1-0.3-1.3s-0.5-0.4-1-0.4
		c-0.5,0-0.9,0.2-1.2,0.5s-0.4,0.8-0.4,1.6v3.7h-2V44H137.3z"/>
	<path class="st0" d="M152.8,44l3.7,9.8h-2.2l-0.7-2.2h-3.7l-0.8,2.2h-2.2l3.7-9.8H152.8z M152.9,50l-1.2-3.6h0l-1.3,3.6H152.9z"/>
	<path class="st0" d="M159,52c0.1,0.2,0.2,0.3,0.3,0.4c0.1,0.1,0.3,0.2,0.5,0.2s0.4,0.1,0.6,0.1c0.1,0,0.3,0,0.4,0s0.3-0.1,0.4-0.2
		c0.1-0.1,0.2-0.2,0.3-0.3c0.1-0.1,0.1-0.3,0.1-0.4c0-0.3-0.2-0.5-0.6-0.7c-0.4-0.1-0.9-0.3-1.6-0.4c-0.3-0.1-0.6-0.1-0.8-0.2
		c-0.3-0.1-0.5-0.2-0.7-0.3c-0.2-0.1-0.4-0.3-0.5-0.5c-0.1-0.2-0.2-0.5-0.2-0.8c0-0.5,0.1-0.8,0.3-1.1c0.2-0.3,0.4-0.5,0.7-0.7
		c0.3-0.2,0.6-0.3,1-0.4c0.4-0.1,0.7-0.1,1.1-0.1c0.4,0,0.8,0,1.1,0.1c0.4,0.1,0.7,0.2,1,0.4c0.3,0.2,0.5,0.4,0.7,0.7
		c0.2,0.3,0.3,0.7,0.3,1.1h-1.9c0-0.4-0.2-0.6-0.4-0.8c-0.3-0.1-0.6-0.2-0.9-0.2c-0.1,0-0.2,0-0.4,0c-0.1,0-0.2,0-0.3,0.1
		c-0.1,0-0.2,0.1-0.3,0.2s-0.1,0.2-0.1,0.4c0,0.2,0.1,0.3,0.2,0.4c0.1,0.1,0.3,0.2,0.5,0.3s0.4,0.1,0.7,0.2s0.5,0.1,0.8,0.2
		c0.3,0.1,0.6,0.1,0.8,0.2c0.3,0.1,0.5,0.2,0.7,0.4c0.2,0.2,0.4,0.3,0.5,0.6s0.2,0.5,0.2,0.8c0,0.5-0.1,0.9-0.3,1.2
		c-0.2,0.3-0.4,0.6-0.7,0.8s-0.6,0.3-1,0.4c-0.4,0.1-0.8,0.1-1.2,0.1c-0.4,0-0.8,0-1.2-0.1c-0.4-0.1-0.7-0.2-1.1-0.4
		s-0.6-0.4-0.8-0.8c-0.2-0.3-0.3-0.7-0.3-1.2h1.9C158.9,51.7,159,51.9,159,52z"/>
	<path class="st0" d="M166.8,52c0.1,0.2,0.2,0.3,0.3,0.4c0.1,0.1,0.3,0.2,0.5,0.2s0.4,0.1,0.6,0.1c0.1,0,0.3,0,0.4,0
		c0.2,0,0.3-0.1,0.4-0.2c0.1-0.1,0.2-0.2,0.3-0.3c0.1-0.1,0.1-0.3,0.1-0.4c0-0.3-0.2-0.5-0.6-0.7c-0.4-0.1-0.9-0.3-1.6-0.4
		c-0.3-0.1-0.6-0.1-0.8-0.2c-0.3-0.1-0.5-0.2-0.7-0.3c-0.2-0.1-0.4-0.3-0.5-0.5c-0.1-0.2-0.2-0.5-0.2-0.8c0-0.5,0.1-0.8,0.3-1.1
		c0.2-0.3,0.4-0.5,0.7-0.7c0.3-0.2,0.6-0.3,1-0.4c0.4-0.1,0.7-0.1,1.1-0.1s0.8,0,1.1,0.1c0.4,0.1,0.7,0.2,1,0.4
		c0.3,0.2,0.5,0.4,0.7,0.7c0.2,0.3,0.3,0.7,0.3,1.1h-1.9c0-0.4-0.2-0.6-0.4-0.8c-0.3-0.1-0.6-0.2-0.9-0.2c-0.1,0-0.2,0-0.4,0
		c-0.1,0-0.2,0-0.4,0.1s-0.2,0.1-0.3,0.2c-0.1,0.1-0.1,0.2-0.1,0.4c0,0.2,0.1,0.3,0.2,0.4c0.1,0.1,0.3,0.2,0.5,0.3
		c0.2,0.1,0.4,0.1,0.7,0.2c0.3,0.1,0.5,0.1,0.8,0.2c0.3,0.1,0.6,0.1,0.8,0.2c0.3,0.1,0.5,0.2,0.7,0.4c0.2,0.2,0.4,0.3,0.5,0.6
		s0.2,0.5,0.2,0.8c0,0.5-0.1,0.9-0.3,1.2c-0.2,0.3-0.4,0.6-0.7,0.8c-0.3,0.2-0.6,0.3-1,0.4c-0.4,0.1-0.8,0.1-1.2,0.1
		c-0.4,0-0.8,0-1.2-0.1c-0.4-0.1-0.7-0.2-1.1-0.4s-0.6-0.4-0.8-0.8c-0.2-0.3-0.3-0.7-0.3-1.2h1.9C166.6,51.7,166.7,51.9,166.8,52z"
		/>
	<path class="st0" d="M172.8,48.7c0.2-0.5,0.4-0.9,0.7-1.2c0.3-0.3,0.7-0.6,1.2-0.8s1-0.3,1.5-0.3c0.6,0,1.1,0.1,1.5,0.3
		s0.8,0.4,1.2,0.8c0.3,0.3,0.6,0.7,0.7,1.2c0.2,0.5,0.3,1,0.3,1.5s-0.1,1.1-0.3,1.5c-0.2,0.5-0.4,0.9-0.7,1.2s-0.7,0.6-1.2,0.8
		c-0.5,0.2-1,0.3-1.5,0.3c-0.6,0-1.1-0.1-1.5-0.3c-0.4-0.2-0.8-0.4-1.2-0.8c-0.3-0.3-0.6-0.7-0.7-1.2c-0.2-0.5-0.3-1-0.3-1.5
		S172.6,49.2,172.8,48.7z M174.5,51.1c0.1,0.3,0.1,0.5,0.3,0.7c0.1,0.2,0.3,0.4,0.5,0.5c0.2,0.1,0.5,0.2,0.8,0.2s0.6-0.1,0.8-0.2
		c0.2-0.1,0.4-0.3,0.5-0.5c0.1-0.2,0.2-0.5,0.3-0.7s0.1-0.5,0.1-0.8c0-0.3,0-0.6-0.1-0.8c-0.1-0.3-0.1-0.5-0.3-0.7s-0.3-0.4-0.5-0.5
		s-0.5-0.2-0.8-0.2s-0.6,0.1-0.8,0.2c-0.2,0.1-0.4,0.3-0.5,0.5s-0.2,0.5-0.3,0.7c-0.1,0.3-0.1,0.6-0.1,0.8
		C174.5,50.5,174.5,50.8,174.5,51.1z"/>
	<path class="st0" d="M184.7,48c-0.3,0-0.6,0.1-0.8,0.2c-0.2,0.1-0.4,0.3-0.5,0.6s-0.2,0.5-0.3,0.7c-0.1,0.3-0.1,0.5-0.1,0.8
		c0,0.3,0,0.5,0.1,0.8c0.1,0.3,0.1,0.5,0.3,0.7c0.1,0.2,0.3,0.4,0.5,0.5c0.2,0.1,0.5,0.2,0.8,0.2c0.5,0,0.8-0.1,1.1-0.4
		c0.3-0.3,0.4-0.6,0.5-1.1h1.9c-0.1,0.9-0.5,1.7-1.1,2.2s-1.4,0.7-2.3,0.7c-0.5,0-1-0.1-1.5-0.3c-0.4-0.2-0.8-0.4-1.1-0.7
		c-0.3-0.3-0.6-0.7-0.7-1.1c-0.2-0.4-0.3-0.9-0.3-1.5c0-0.5,0.1-1.1,0.2-1.5c0.2-0.5,0.4-0.9,0.7-1.2s0.7-0.6,1.1-0.8s1-0.3,1.5-0.3
		c0.4,0,0.8,0.1,1.2,0.2c0.4,0.1,0.7,0.3,1,0.5c0.3,0.2,0.6,0.5,0.7,0.8c0.2,0.3,0.3,0.7,0.3,1.2h-1.9C186,48.4,185.6,48,184.7,48z"
		/>
	<path class="st0" d="M189.6,45.6V44h2v1.6H189.6z M191.5,46.7v7.1h-2v-7.1H191.5z"/>
	<path class="st0" d="M193.3,48.9c0-0.5,0.1-0.8,0.3-1.1c0.2-0.3,0.5-0.5,0.8-0.7c0.3-0.2,0.7-0.3,1.1-0.4c0.4-0.1,0.8-0.1,1.2-0.1
		c0.4,0,0.7,0,1.1,0.1s0.7,0.1,1,0.3c0.3,0.1,0.5,0.4,0.7,0.6c0.2,0.3,0.3,0.6,0.3,1v3.7c0,0.3,0,0.6,0.1,0.9c0,0.3,0.1,0.5,0.2,0.7
		h-2c0-0.1-0.1-0.2-0.1-0.3c0-0.1,0-0.2,0-0.4c-0.3,0.3-0.7,0.5-1.1,0.7s-0.9,0.2-1.3,0.2c-0.3,0-0.7,0-0.9-0.1
		c-0.3-0.1-0.5-0.2-0.8-0.4c-0.2-0.2-0.4-0.4-0.5-0.7c-0.1-0.3-0.2-0.6-0.2-0.9c0-0.4,0.1-0.7,0.2-1c0.1-0.3,0.3-0.5,0.6-0.6
		c0.2-0.2,0.5-0.3,0.8-0.4c0.3-0.1,0.6-0.1,0.9-0.2s0.6-0.1,0.9-0.1c0.3,0,0.5-0.1,0.8-0.1c0.2-0.1,0.4-0.1,0.5-0.2
		c0.1-0.1,0.2-0.3,0.2-0.5c0-0.2,0-0.4-0.1-0.5s-0.2-0.2-0.3-0.3c-0.1-0.1-0.2-0.1-0.4-0.1c-0.2,0-0.3,0-0.5,0
		c-0.4,0-0.7,0.1-0.9,0.2s-0.3,0.4-0.4,0.8H193.3z M197.8,50.3c-0.1,0.1-0.2,0.1-0.3,0.2s-0.3,0.1-0.4,0.1c-0.1,0-0.3,0.1-0.4,0.1
		c-0.2,0-0.3,0-0.5,0.1c-0.1,0-0.3,0.1-0.4,0.1c-0.1,0-0.3,0.1-0.4,0.2s-0.2,0.2-0.3,0.3s-0.1,0.3-0.1,0.5c0,0.2,0,0.3,0.1,0.4
		s0.2,0.2,0.3,0.3c0.1,0.1,0.2,0.1,0.4,0.1s0.3,0,0.5,0c0.4,0,0.7-0.1,0.9-0.2c0.2-0.1,0.4-0.3,0.5-0.5c0.1-0.2,0.2-0.4,0.2-0.5
		c0-0.2,0-0.3,0-0.4V50.3z"/>
	<path class="st0" d="M205.4,46.7V48H204v3.5c0,0.3,0.1,0.5,0.2,0.7c0.1,0.1,0.3,0.2,0.7,0.2c0.1,0,0.2,0,0.3,0c0.1,0,0.2,0,0.3,0
		v1.5c-0.2,0-0.3,0-0.5,0.1c-0.2,0-0.4,0-0.6,0c-0.3,0-0.6,0-0.9-0.1c-0.3,0-0.5-0.1-0.7-0.2c-0.2-0.1-0.4-0.3-0.5-0.5
		c-0.1-0.2-0.2-0.5-0.2-0.9V48h-1.2v-1.3h1.2v-2.1h2v2.1H205.4z"/>
	<path class="st0" d="M206.8,45.6V44h2v1.6H206.8z M208.7,46.7v7.1h-2v-7.1H208.7z"/>
	<path class="st0" d="M210.6,48.7c0.2-0.5,0.4-0.9,0.7-1.2c0.3-0.3,0.7-0.6,1.2-0.8s1-0.3,1.5-0.3c0.6,0,1.1,0.1,1.5,0.3
		s0.8,0.4,1.2,0.8c0.3,0.3,0.6,0.7,0.7,1.2c0.2,0.5,0.3,1,0.3,1.5s-0.1,1.1-0.3,1.5c-0.2,0.5-0.4,0.9-0.7,1.2
		c-0.3,0.3-0.7,0.6-1.2,0.8c-0.5,0.2-1,0.3-1.5,0.3c-0.6,0-1.1-0.1-1.5-0.3c-0.4-0.2-0.8-0.4-1.2-0.8c-0.3-0.3-0.6-0.7-0.7-1.2
		c-0.2-0.5-0.3-1-0.3-1.5S210.4,49.2,210.6,48.7z M212.3,51.1c0.1,0.3,0.1,0.5,0.3,0.7c0.1,0.2,0.3,0.4,0.5,0.5
		c0.2,0.1,0.5,0.2,0.8,0.2s0.6-0.1,0.8-0.2c0.2-0.1,0.4-0.3,0.5-0.5c0.1-0.2,0.2-0.5,0.3-0.7s0.1-0.5,0.1-0.8c0-0.3,0-0.6-0.1-0.8
		c-0.1-0.3-0.1-0.5-0.3-0.7s-0.3-0.4-0.5-0.5S214.3,48,214,48s-0.6,0.1-0.8,0.2c-0.2,0.1-0.4,0.3-0.5,0.5s-0.2,0.5-0.3,0.7
		c-0.1,0.3-0.1,0.6-0.1,0.8C212.2,50.5,212.3,50.8,212.3,51.1z"/>
	<path class="st0" d="M221,46.7v1h0c0.2-0.4,0.6-0.7,1-0.9c0.4-0.2,0.8-0.3,1.2-0.3c0.5,0,1,0.1,1.3,0.2c0.3,0.1,0.6,0.3,0.8,0.6
		c0.2,0.3,0.3,0.6,0.4,0.9c0.1,0.4,0.1,0.8,0.1,1.2v4.4h-2v-4c0-0.6-0.1-1-0.3-1.3c-0.2-0.3-0.5-0.4-1-0.4c-0.5,0-0.9,0.2-1.2,0.5
		s-0.4,0.8-0.4,1.6v3.7h-2v-7.1H221z"/>
	<path class="st1" d="M109,88h-1.4l0.9-6.9c0.1-0.6,0.3-1.6,0.3-1.7c-0.2,0.5-0.5,1.1-0.7,1.6l-3.5,7.1h-1.2l-0.4-6.7
		c0-0.7-0.1-1.3-0.1-1.9c0,0.1-0.3,1.3-0.5,1.9l-1.9,6.7H99l3.1-10.2h2l0.4,6.2c0,0.7,0.1,1,0,1.7c0.3-0.8,0.5-1.1,0.7-1.7l3.1-6.3
		h2L109,88z"/>
	<path class="st1" d="M116.9,83.9c-0.6,0.6-1.6,0.9-3.2,0.9c-0.3,0-0.7,0-0.9,0c-0.1,0.3-0.1,0.6-0.1,0.9c0,1,0.6,1.5,1.4,1.5
		c0.9,0,1.4-0.2,2.1-0.8l0.5,0.8c-0.8,0.7-1.6,1.1-3,1.1c-1.5,0-2.5-1-2.5-2.7c0-1.5,0.6-3.1,1.6-4.1c0.7-0.7,1.5-1,2.5-1
		c1.4,0,2.2,0.7,2.2,1.9C117.6,83,117.4,83.5,116.9,83.9z M115.2,81.4c-0.9,0-1.7,0.8-2.1,2.3c0.2,0,0.5,0,0.7,0
		c1.1,0,1.7-0.2,2.1-0.5c0.2-0.2,0.4-0.5,0.4-0.8C116.3,81.9,116,81.4,115.2,81.4z"/>
	<path class="st1" d="M125.2,82.5L124,88h-1.4l1-5c0.1-0.4,0.1-0.6,0.1-0.8c0-0.5-0.2-0.7-0.7-0.7c-0.6,0-1.4,0.4-2.3,1.6l-1,4.8
		h-1.3l1.1-5.2c0.2-0.9,0.2-1.3,0-1.9l1.3-0.6c0.1,0.4,0.2,0.9,0.1,1.5c0.8-1,1.8-1.5,2.8-1.5c0.9,0,1.5,0.6,1.5,1.5
		C125.3,82.1,125.2,82.3,125.2,82.5z"/>
	<path class="st1" d="M130.6,81.6h-1.5l-0.9,4.2c-0.1,0.3-0.1,0.6-0.1,0.8c0,0.5,0.2,0.7,0.7,0.7c0.3,0,0.5-0.1,0.8-0.1v0.8
		c-0.5,0.2-0.9,0.3-1.4,0.3c-0.9,0-1.4-0.5-1.4-1.2c0-0.4,0-0.6,0.1-1l0.9-4.4h-0.9l0.2-1h0.9c0.1-0.6,0.3-1.3,0.5-1.8l1.5-0.3
		c-0.2,0.6-0.5,1.5-0.6,2.2h1.8L130.6,81.6z"/>
	<path class="st1" d="M137.2,82.6l-0.6,3c-0.2,1.1-0.1,1.4,0.3,1.8l-1.1,0.8c-0.4-0.4-0.6-0.8-0.5-1.4c-0.5,0.8-1.4,1.3-2.4,1.3
		c-1,0-1.8-0.7-1.8-2.3c0-1.5,0.6-3.2,1.5-4.2c0.8-0.8,1.8-1.2,3-1.2c0.8,0,1.6,0.2,2.2,0.6C137.5,81.4,137.3,82.1,137.2,82.6z
		 M135.3,81.5c-0.8,0-1.3,0.3-1.9,1c-0.7,0.8-1,2.3-1,3.3c0,0.9,0.3,1.2,0.9,1.2c0.7,0,1.6-0.7,2-1.6l0.8-3.7
		C135.9,81.6,135.6,81.5,135.3,81.5z"/>
	<path class="st1" d="M141.5,79.7l-1.4,6.3c-0.1,0.4-0.1,0.6-0.1,0.8c0,0.3,0.1,0.4,0.3,0.4c0.1,0,0.2,0,0.3,0l0.1,0.9
		c-0.3,0.1-0.6,0.2-1,0.2c-0.7,0-1.1-0.4-1.1-1c0-0.2,0-0.5,0.1-0.8l1.4-6.5c0.2-1,0.2-1.7,0.1-2.2l1.4-0.5
		C141.8,77.6,141.7,78.8,141.5,79.7z"/>
	<path class="st1" d="M152.5,82.7l-1.1,5.3H150l1-5c0.1-0.3,0.1-0.5,0.1-0.7c0-0.5-0.3-0.7-0.8-0.7c-0.7,0-1.7,0.6-2.4,1.6l-1,4.8
		h-1.4l1.7-8.2c0.2-1,0.2-1.7,0.1-2.2l1.4-0.5c0.2,0.5,0.1,1.6-0.1,2.6l-0.2,0.9c-0.1,0.3-0.2,0.9-0.3,1.3c0.8-1,1.9-1.4,2.8-1.4
		c1,0,1.6,0.6,1.6,1.4C152.6,82.1,152.5,82.4,152.5,82.7z"/>
	<path class="st1" d="M159.4,83.9c-0.6,0.6-1.6,0.9-3.2,0.9c-0.3,0-0.7,0-0.9,0c-0.1,0.3-0.1,0.6-0.1,0.9c0,1,0.6,1.5,1.4,1.5
		c0.9,0,1.4-0.2,2.1-0.8l0.5,0.8c-0.8,0.7-1.6,1.1-3,1.1c-1.5,0-2.5-1-2.5-2.7c0-1.5,0.6-3.1,1.6-4.1c0.7-0.7,1.5-1,2.5-1
		c1.4,0,2.2,0.7,2.2,1.9C160.1,83,159.8,83.5,159.4,83.9z M157.7,81.4c-0.9,0-1.7,0.8-2.1,2.3c0.2,0,0.5,0,0.7,0
		c1.1,0,1.7-0.2,2.1-0.5c0.2-0.2,0.4-0.5,0.4-0.8C158.7,81.9,158.4,81.4,157.7,81.4z"/>
	<path class="st1" d="M167.3,82.6l-0.6,3c-0.2,1.1-0.1,1.4,0.3,1.8l-1.1,0.8c-0.4-0.4-0.6-0.8-0.5-1.4c-0.5,0.8-1.4,1.3-2.4,1.3
		c-1,0-1.8-0.7-1.8-2.3c0-1.5,0.6-3.2,1.5-4.2c0.8-0.8,1.8-1.2,3-1.2c0.8,0,1.6,0.2,2.2,0.6C167.6,81.4,167.4,82.1,167.3,82.6z
		 M165.3,81.5c-0.8,0-1.3,0.3-1.9,1c-0.7,0.8-1,2.3-1,3.3c0,0.9,0.3,1.2,0.9,1.2c0.7,0,1.6-0.7,2-1.6l0.8-3.7
		C165.9,81.6,165.7,81.5,165.3,81.5z"/>
	<path class="st1" d="M171.6,79.7l-1.4,6.3c-0.1,0.4-0.1,0.6-0.1,0.8c0,0.3,0.1,0.4,0.3,0.4c0.1,0,0.2,0,0.3,0l0.1,0.9
		c-0.3,0.1-0.6,0.2-1,0.2c-0.7,0-1.1-0.4-1.1-1c0-0.2,0-0.5,0.1-0.8l1.4-6.5c0.2-1,0.2-1.7,0.1-2.2l1.4-0.5
		C171.8,77.6,171.7,78.8,171.6,79.7z"/>
	<path class="st1" d="M176.5,81.6H175l-0.9,4.2c-0.1,0.3-0.1,0.6-0.1,0.8c0,0.5,0.2,0.7,0.7,0.7c0.3,0,0.5-0.1,0.8-0.1v0.8
		c-0.5,0.2-0.9,0.3-1.4,0.3c-0.9,0-1.4-0.5-1.4-1.2c0-0.4,0-0.6,0.1-1l0.9-4.4h-0.9l0.2-1h0.9c0.1-0.6,0.3-1.3,0.5-1.8l1.5-0.3
		c-0.2,0.6-0.5,1.5-0.6,2.2h1.8L176.5,81.6z"/>
	<path class="st1" d="M183.8,82.7l-1.1,5.3h-1.3l1-5c0.1-0.3,0.1-0.5,0.1-0.7c0-0.5-0.3-0.7-0.8-0.7c-0.6,0-1.7,0.6-2.4,1.6l-1,4.8
		h-1.4l1.7-8.2c0.2-1,0.2-1.7,0.1-2.2l1.4-0.5c0.2,0.5,0.1,1.6-0.1,2.6l-0.2,0.9c-0.1,0.3-0.2,0.9-0.3,1.3c0.8-1,1.9-1.4,2.8-1.4
		c1,0,1.6,0.6,1.6,1.4C183.9,82.1,183.8,82.4,183.8,82.7z"/>
	<path class="st1" d="M193.7,78.6c-0.3-0.2-0.7-0.3-1-0.3c-0.6,0-1.1,0.4-1.2,1.2l-0.2,1.1h2l-0.6,1h-1.6l-1.3,6.6
		c-0.3,1.4-0.7,2.3-1.3,3l-1-0.7c0.4-0.6,0.8-1.3,1-2.4l1.3-6.5H189l0.2-1h0.7c0-0.1,0.2-0.9,0.2-1c0.2-1,0.6-1.6,1.2-2
		c0.4-0.3,0.9-0.4,1.4-0.4c0.6,0,1.1,0.1,1.5,0.4L193.7,78.6z"/>
	<path class="st1" d="M195.3,88.2c-1.6,0-2.5-1-2.5-2.7c0-2.9,1.8-5.1,4.2-5.1c1.7,0,2.6,1,2.6,2.6
		C199.5,85.8,197.8,88.2,195.3,88.2z M196.7,81.5c-1.6,0-2.4,2.1-2.4,4.1c0,1,0.5,1.5,1.3,1.5c1.6,0,2.4-2.1,2.4-4.2
		C198,81.9,197.4,81.5,196.7,81.5z"/>
	<path class="st1" d="M205.3,81.9c-0.1-0.1-0.3-0.1-0.5-0.1c-0.6,0-1.3,0.5-2,1.5l-1,4.7h-1.3l1.1-5c0.2-1.1,0.2-1.6,0.1-2.1
		l1.3-0.6c0.2,0.4,0.2,0.9,0.1,1.6c0.7-1,1.6-1.6,2.3-1.6c0.3,0,0.4,0,0.6,0.1L205.3,81.9z"/>
	<path class="st1" d="M215,82.6l-0.6,3c-0.2,1.1-0.1,1.4,0.3,1.8l-1.1,0.8c-0.4-0.4-0.6-0.8-0.5-1.4c-0.5,0.8-1.4,1.3-2.4,1.3
		c-1,0-1.8-0.7-1.8-2.3c0-1.5,0.6-3.2,1.5-4.2c0.8-0.8,1.8-1.2,3-1.2c0.8,0,1.6,0.2,2.2,0.6C215.3,81.4,215.2,82.1,215,82.6z
		 M213.1,81.5c-0.8,0-1.3,0.3-1.9,1c-0.7,0.8-1,2.3-1,3.3c0,0.9,0.3,1.2,0.9,1.2c0.7,0,1.6-0.7,2-1.6l0.8-3.7
		C213.7,81.6,213.4,81.5,213.1,81.5z"/>
	<path class="st1" d="M219.3,79.7L218,86c-0.1,0.4-0.1,0.6-0.1,0.8c0,0.3,0.1,0.4,0.3,0.4c0.1,0,0.2,0,0.3,0l0.1,0.9
		c-0.3,0.1-0.6,0.2-1,0.2c-0.7,0-1.1-0.4-1.1-1c0-0.2,0-0.5,0.1-0.8l1.4-6.5c0.2-1,0.2-1.7,0.1-2.2l1.4-0.5
		C219.6,77.6,219.5,78.8,219.3,79.7z"/>
	<path class="st1" d="M223.2,79.7l-1.4,6.3c-0.1,0.4-0.1,0.6-0.1,0.8c0,0.3,0.1,0.4,0.3,0.4c0.1,0,0.2,0,0.3,0l0.1,0.9
		c-0.3,0.1-0.7,0.2-1,0.2c-0.7,0-1.1-0.4-1.1-1c0-0.2,0-0.5,0.1-0.8l1.4-6.5c0.2-1,0.2-1.7,0.1-2.2l1.4-0.5
		C223.4,77.6,223.3,78.8,223.2,79.7z"/>
</g>
<g>
	<path class="st1" d="M46.8,44.2c0-1.5,1.2-2.7,2.7-2.7c1.5,0,2.7,1.2,2.7,2.7c0,1.5-1.2,2.7-2.7,2.7C48,46.9,46.8,45.7,46.8,44.2z
		 M50.1,49.9l34.5-23.6H20.9L50.1,49.9z"/>
	<polygon class="st1" points="20.4,27.4 56.9,62.6 20.4,90.5 	"/>
	<polygon class="st1" points="86.7,26.3 54.6,51.1 86.7,90.3 	"/>
	<path class="st2" d="M54.2,86.6c12.8,0,24.2,1.6,31.2,4.1h0.4L59.6,65.4L22.3,90.8H23C30,88.3,41.4,86.6,54.2,86.6z"/>
</g>
<g>
	<path class="st2" d="M106.8,60.5v1.1h-5.6v3.2h5.2v1.1h-5.2v3.5h5.6v1.1h-6.9v-10H106.8z"/>
	<path class="st2" d="M113.6,70.5v-1h0c-0.2,0.4-0.5,0.7-0.9,0.9c-0.4,0.2-0.9,0.3-1.4,0.3c-0.6,0-1-0.1-1.5-0.3s-0.8-0.5-1-0.8
		c-0.3-0.3-0.5-0.7-0.6-1.2c-0.1-0.5-0.2-0.9-0.2-1.5c0-0.5,0.1-1,0.2-1.5c0.1-0.5,0.3-0.9,0.6-1.2c0.3-0.3,0.6-0.6,1-0.8
		c0.4-0.2,0.9-0.3,1.4-0.3c0.2,0,0.4,0,0.6,0.1s0.4,0.1,0.6,0.2s0.4,0.2,0.6,0.4c0.2,0.1,0.4,0.3,0.5,0.5h0v-3.7h1.2v10H113.6z
		 M109.3,67.9c0.1,0.3,0.2,0.6,0.4,0.9c0.2,0.3,0.4,0.5,0.7,0.6c0.3,0.1,0.6,0.2,1,0.2c0.4,0,0.7-0.1,1-0.2c0.3-0.2,0.5-0.4,0.7-0.6
		s0.3-0.5,0.4-0.9c0.1-0.3,0.1-0.7,0.1-1c0-0.4,0-0.7-0.1-1c-0.1-0.3-0.2-0.6-0.4-0.9c-0.2-0.3-0.4-0.5-0.7-0.6
		c-0.3-0.2-0.6-0.2-1.1-0.2c-0.4,0-0.7,0.1-1,0.2c-0.3,0.2-0.5,0.4-0.7,0.6c-0.2,0.3-0.3,0.6-0.4,0.9c-0.1,0.3-0.1,0.7-0.1,1
		C109.2,67.2,109.2,67.6,109.3,67.9z"/>
	<path class="st2" d="M117.7,63.2v1.1h0c0.5-0.8,1.3-1.2,2.3-1.2c0.4,0,0.9,0.1,1.2,0.3c0.4,0.2,0.6,0.5,0.8,1
		c0.2-0.4,0.6-0.7,1-0.9s0.8-0.3,1.3-0.3c0.4,0,0.7,0,1,0.1s0.5,0.2,0.8,0.4s0.4,0.4,0.5,0.7c0.1,0.3,0.2,0.6,0.2,1v5.3h-1.2v-4.7
		c0-0.2,0-0.4-0.1-0.6s-0.1-0.4-0.2-0.5s-0.2-0.3-0.4-0.3s-0.4-0.1-0.7-0.1c-0.6,0-1,0.2-1.4,0.5c-0.3,0.3-0.5,0.8-0.5,1.3v4.5h-1.2
		v-4.7c0-0.2,0-0.4-0.1-0.6c0-0.2-0.1-0.4-0.2-0.5c-0.1-0.1-0.2-0.3-0.4-0.3c-0.2-0.1-0.4-0.1-0.7-0.1c-0.3,0-0.6,0.1-0.9,0.2
		c-0.2,0.1-0.4,0.3-0.6,0.5c-0.2,0.2-0.3,0.4-0.3,0.6c-0.1,0.2-0.1,0.4-0.1,0.5v4.5h-1.2v-7.2H117.7z"/>
	<path class="st2" d="M128.4,65.4c0.1-0.5,0.4-0.9,0.7-1.2c0.3-0.3,0.7-0.6,1.1-0.8c0.4-0.2,0.9-0.3,1.5-0.3c0.6,0,1.1,0.1,1.5,0.3
		c0.4,0.2,0.8,0.5,1.1,0.8c0.3,0.3,0.5,0.7,0.7,1.2c0.1,0.5,0.2,1,0.2,1.5c0,0.5-0.1,1-0.2,1.5s-0.4,0.9-0.7,1.2s-0.7,0.6-1.1,0.8
		c-0.4,0.2-0.9,0.3-1.5,0.3c-0.6,0-1.1-0.1-1.5-0.3s-0.8-0.5-1.1-0.8c-0.3-0.3-0.5-0.7-0.7-1.2s-0.2-1-0.2-1.5
		C128.1,66.3,128.2,65.8,128.4,65.4z M129.6,68c0.1,0.3,0.3,0.6,0.5,0.9s0.4,0.4,0.7,0.5c0.3,0.1,0.6,0.2,0.9,0.2
		c0.3,0,0.6-0.1,0.9-0.2c0.3-0.1,0.5-0.3,0.7-0.5c0.2-0.2,0.4-0.5,0.5-0.9c0.1-0.3,0.2-0.7,0.2-1.2c0-0.4-0.1-0.8-0.2-1.2
		c-0.1-0.3-0.3-0.6-0.5-0.9c-0.2-0.2-0.4-0.4-0.7-0.5s-0.6-0.2-0.9-0.2c-0.3,0-0.6,0.1-0.9,0.2s-0.5,0.3-0.7,0.5s-0.4,0.5-0.5,0.9
		c-0.1,0.3-0.2,0.7-0.2,1.2C129.4,67.3,129.5,67.7,129.6,68z"/>
	<path class="st2" d="M137.7,63.2v1.1h0c0.5-0.9,1.3-1.3,2.4-1.3c0.5,0,0.9,0.1,1.2,0.2s0.6,0.3,0.8,0.5c0.2,0.2,0.3,0.5,0.4,0.8
		c0.1,0.3,0.1,0.7,0.1,1.1v4.8h-1.2v-4.9c0-0.4-0.1-0.8-0.4-1.1c-0.3-0.3-0.6-0.4-1.1-0.4c-0.4,0-0.7,0.1-0.9,0.2
		c-0.3,0.1-0.5,0.3-0.7,0.5c-0.2,0.2-0.3,0.4-0.4,0.7s-0.1,0.6-0.1,0.9v4.1h-1.2v-7.2H137.7z"/>
	<path class="st2" d="M147.5,63.2v1H146v4.5c0,0.1,0,0.3,0,0.3s0.1,0.1,0.1,0.2s0.2,0.1,0.3,0.1c0.1,0,0.3,0,0.5,0h0.5v1h-0.9
		c-0.3,0-0.6,0-0.8-0.1c-0.2,0-0.4-0.1-0.5-0.2c-0.1-0.1-0.2-0.3-0.3-0.5c-0.1-0.2-0.1-0.5-0.1-0.8v-4.6h-1.2v-1h1.2V61h1.2v2.2
		H147.5z"/>
	<path class="st2" d="M148.6,65.4c0.1-0.5,0.4-0.9,0.7-1.2c0.3-0.3,0.7-0.6,1.1-0.8c0.4-0.2,0.9-0.3,1.5-0.3c0.6,0,1.1,0.1,1.5,0.3
		c0.4,0.2,0.8,0.5,1.1,0.8c0.3,0.3,0.5,0.7,0.7,1.2c0.1,0.5,0.2,1,0.2,1.5c0,0.5-0.1,1-0.2,1.5s-0.4,0.9-0.7,1.2s-0.7,0.6-1.1,0.8
		c-0.4,0.2-0.9,0.3-1.5,0.3c-0.6,0-1.1-0.1-1.5-0.3s-0.8-0.5-1.1-0.8c-0.3-0.3-0.5-0.7-0.7-1.2s-0.2-1-0.2-1.5
		C148.4,66.3,148.5,65.8,148.6,65.4z M149.8,68c0.1,0.3,0.3,0.6,0.5,0.9s0.4,0.4,0.7,0.5c0.3,0.1,0.6,0.2,0.9,0.2
		c0.3,0,0.6-0.1,0.9-0.2c0.3-0.1,0.5-0.3,0.7-0.5c0.2-0.2,0.4-0.5,0.5-0.9c0.1-0.3,0.2-0.7,0.2-1.2c0-0.4-0.1-0.8-0.2-1.2
		c-0.1-0.3-0.3-0.6-0.5-0.9c-0.2-0.2-0.4-0.4-0.7-0.5s-0.6-0.2-0.9-0.2c-0.3,0-0.6,0.1-0.9,0.2s-0.5,0.3-0.7,0.5s-0.4,0.5-0.5,0.9
		c-0.1,0.3-0.2,0.7-0.2,1.2C149.6,67.3,149.7,67.7,149.8,68z"/>
	<path class="st2" d="M157.9,63.2v1.1h0c0.5-0.9,1.3-1.3,2.4-1.3c0.5,0,0.9,0.1,1.2,0.2s0.6,0.3,0.8,0.5c0.2,0.2,0.3,0.5,0.4,0.8
		c0.1,0.3,0.1,0.7,0.1,1.1v4.8h-1.2v-4.9c0-0.4-0.1-0.8-0.4-1.1c-0.3-0.3-0.6-0.4-1.1-0.4c-0.4,0-0.7,0.1-0.9,0.2
		c-0.3,0.1-0.5,0.3-0.7,0.5c-0.2,0.2-0.3,0.4-0.4,0.7S158,66,158,66.4v4.1h-1.2v-7.2H157.9z"/>
</g>
</svg>
