<?xml version="1.0" encoding="UTF-8"?>
<svg width="746px" height="172px" viewBox="0 0 746 172" version="1.1" xmlns="http://www.w3.org/2000/svg" xmlns:xlink="http://www.w3.org/1999/xlink">
    <!-- Generator: Sketch 55.2 (78181) - https://sketchapp.com -->
    <title>Group 39</title>
    <desc>Created with Sketch.</desc>
    <defs>
        <polygon id="path-1" points="0 171.205 745.857 171.205 745.857 0 0 0"></polygon>
    </defs>
    <g id="Design" stroke="none" stroke-width="1" fill="none" fill-rule="evenodd">
        <g id="Home" transform="translate(-212.000000, -2361.000000)">
            <g id="Group-39" transform="translate(212.000000, 2361.000000)">
                <path d="M81.312,87.2738 C81.312,69.1828 79.837,56.6958 60.173,56.6958 C42.868,56.6958 38.542,67.8058 38.542,82.7508 C38.542,98.4828 40.115,112.6408 60.173,112.6408 C73.446,112.6408 80.525,106.3478 80.82,93.0748 L66.072,93.0748 C65.679,99.7608 64.499,102.8088 60.271,102.8088 C55.65,102.8088 54.47,98.7778 54.47,90.5188 L54.47,87.2738 L81.312,87.2738 Z M65.974,78.0318 L54.47,78.0318 C54.47,70.8538 55.355,66.5278 60.566,66.5278 C64.991,66.5278 65.974,70.5588 65.974,78.0318 L65.974,78.0318 Z" id="Fill-1" fill="#FEFEFE"></path>
                <path d="M187.2012,84.5204 C187.2012,68.5924 184.6452,56.6954 165.2752,56.6954 C146.8892,56.6954 143.3502,68.8874 143.3502,84.8154 C143.3502,100.7434 145.8082,112.6404 165.2752,112.6404 C183.6612,112.6404 187.2012,100.4484 187.2012,84.5204 M171.2732,84.7174 C171.2732,97.7934 170.2902,102.2184 165.3742,102.2184 C160.6542,102.2184 159.2782,97.5974 159.2782,84.6184 C159.2782,71.7384 160.6542,67.1174 165.3742,67.1174 C170.2902,67.1174 171.2732,71.5424 171.2732,84.7174" id="Fill-3" fill="#FEFEFE"></path>
                <path d="M288.2275,87.2738 C288.2275,69.1828 286.7525,56.6958 267.0885,56.6958 C249.7835,56.6958 245.4575,67.8058 245.4575,82.7508 C245.4575,98.4828 247.0305,112.6408 267.0885,112.6408 C280.3615,112.6408 287.4405,106.3478 287.7355,93.0748 L272.9875,93.0748 C272.5945,99.7608 271.4145,102.8088 267.1865,102.8088 C262.5655,102.8088 261.3855,98.7778 261.3855,90.5188 L261.3855,87.2738 L288.2275,87.2738 Z M272.8895,78.0318 L261.3855,78.0318 C261.3855,70.8538 262.2705,66.5278 267.4815,66.5278 C271.9065,66.5278 272.8895,70.5588 272.8895,78.0318 L272.8895,78.0318 Z" id="Fill-5" fill="#FEFEFE"></path>
                <path d="M741.7754,87.2738 C741.7754,69.1828 740.3004,56.6958 720.6364,56.6958 C703.3314,56.6958 699.0054,67.8058 699.0054,82.7508 C699.0054,98.4828 700.5784,112.6408 720.6364,112.6408 C733.9094,112.6408 740.9884,106.3478 741.2834,93.0748 L726.5354,93.0748 C726.1424,99.7608 724.9634,102.8088 720.7344,102.8088 C716.1134,102.8088 714.9334,98.7778 714.9334,90.5188 L714.9334,87.2738 L741.7754,87.2738 Z M726.4374,78.0318 L714.9334,78.0318 C714.9334,70.8538 715.8184,66.5278 721.0294,66.5278 C725.4544,66.5278 726.4374,70.5588 726.4374,78.0318 L726.4374,78.0318 Z" id="Fill-7" fill="#FEFEFE"></path>
                <path d="M686.8145,109.3959 L686.8145,58.0719 L672.0665,58.0719 L672.0665,65.2499 L671.8695,65.2499 C670.0015,60.4319 666.4615,56.6959 659.2845,56.6959 C645.5185,56.6959 643.7495,71.3459 643.7495,83.9309 C643.7495,98.5809 647.2895,109.9859 658.6945,109.9859 C664.2005,109.9859 669.0175,108.3139 671.2795,102.1199 L671.4755,102.1199 L671.4755,105.3649 C671.4755,115.4919 670.2955,118.9329 665.0855,118.9329 C663.5115,118.9329 662.2345,118.5399 661.1525,117.8519 C660.3665,117.1629 659.7765,116.0819 659.4815,114.6069 L644.7335,114.6069 C644.7335,122.5709 649.2545,129.3549 664.6925,129.3549 C681.5045,129.3549 686.8145,121.4899 686.8145,109.3959 M671.4755,83.2429 C671.4755,95.2379 669.8035,98.3839 665.4775,98.3839 C661.1525,98.3839 659.6765,94.8439 659.6765,83.7339 C659.6765,74.9839 660.4635,68.8879 665.6745,68.8879 C670.2955,68.8879 671.4755,73.4099 671.4755,83.2429" id="Fill-9" fill="#FEFEFE"></path>
                <path d="M633.2305,87.2738 C633.2305,69.1828 631.7545,56.6958 612.0905,56.6958 C594.7865,56.6958 590.4595,67.8058 590.4595,82.7508 C590.4595,98.4828 592.0335,112.6408 612.0905,112.6408 C625.3645,112.6408 632.4435,106.3478 632.7385,93.0748 L617.9905,93.0748 C617.5975,99.7608 616.4175,102.8088 612.1895,102.8088 C607.5685,102.8088 606.3885,98.7778 606.3885,90.5188 L606.3885,87.2738 L633.2305,87.2738 Z M617.8925,78.0318 L606.3885,78.0318 C606.3885,70.8538 607.2735,66.5278 612.4845,66.5278 C616.9095,66.5278 617.8925,70.5588 617.8925,78.0318 L617.8925,78.0318 Z" id="Fill-11" fill="#FEFEFE"></path>
                <path d="M518.6875,84.5204 C518.6875,68.5924 516.1305,56.6954 496.7615,56.6954 C478.3745,56.6954 474.8355,68.8874 474.8355,84.8154 C474.8355,100.7434 477.2935,112.6404 496.7615,112.6404 C515.1475,112.6404 518.6875,100.4484 518.6875,84.5204 M502.7595,84.7174 C502.7595,97.7934 501.7765,102.2184 496.8605,102.2184 C492.1405,102.2184 490.7645,97.5974 490.7645,84.6184 C490.7645,71.7384 492.1405,67.1174 496.8605,67.1174 C501.7765,67.1174 502.7595,71.5424 502.7595,84.7174" id="Fill-13" fill="#FEFEFE"></path>
                <path d="M0,111.2641 L15.928,111.2641 L15.928,81.0791 C15.928,74.0001 20.058,71.4441 26.448,71.4441 C28.022,71.4441 29.3,71.5421 30.873,71.8371 L30.873,56.8921 C30.381,56.7941 29.89,56.6961 29.496,56.6961 L28.316,56.6961 C21.631,56.6961 17.599,60.8251 15.535,65.5451 L15.338,65.5451 L15.338,58.0721 L0,58.0721 L0,111.2641 Z" id="Fill-15" fill="#FEFEFE"></path>
                <path d="M133.6172,78.1298 C133.6172,65.4468 129.3892,56.6958 112.5762,56.6958 C95.2722,56.6958 90.9462,67.8058 90.9462,82.7508 C90.9462,98.4818 92.5192,112.6408 112.5762,112.6408 C127.0292,112.6408 133.5192,106.0528 133.6172,89.6338 L118.8692,89.6338 C118.5742,99.0718 117.5912,102.2188 112.8712,102.2188 C107.6602,102.2188 106.8742,96.8108 106.8742,84.7168 C106.8742,73.8038 107.6602,67.1178 112.8712,67.1178 C117.0992,67.1178 118.8692,70.2638 118.8692,78.1298 L133.6172,78.1298 Z" id="Fill-17" fill="#FEFEFE"></path>
                <polygon id="Fill-19" fill="#FEFEFE" points="208.5371 111.2641 227.4151 111.2641 240.5901 58.0721 224.6621 58.0721 218.3691 97.3021 218.1721 97.3021 211.9781 58.0721 195.4601 58.0721"></polygon>
                <path d="M299.6313,111.2641 L315.5593,111.2641 L315.5593,81.0791 C315.5593,74.0001 319.6883,71.4441 326.0793,71.4441 C327.6533,71.4441 328.9313,71.5421 330.5043,71.8371 L330.5043,56.8921 C330.0113,56.7941 329.5213,56.6961 329.1273,56.6961 L327.9473,56.6961 C321.2613,56.6961 317.2303,60.8251 315.1663,65.5451 L314.9683,65.5451 L314.9683,58.0721 L299.6313,58.0721 L299.6313,111.2641 Z" id="Fill-21" fill="#FEFEFE"></path>
                <path d="M352.7236,111.6572 C351.8386,116.2782 349.0856,117.5562 346.0376,117.5562 C344.7596,117.5562 343.3826,117.4582 342.1056,117.1632 L342.1056,128.3722 C343.1876,128.4702 344.2686,128.5682 345.3496,128.5682 L348.9886,128.5682 C361.2786,128.5682 365.1126,125.3242 368.7496,111.6572 L383.0066,58.0722 L367.0786,58.0722 L360.8846,95.3362 L360.6886,95.3362 L354.1996,58.0722 L337.6806,58.0722 L352.7236,111.6572 Z" id="Fill-23" fill="#FEFEFE"></path>
                <path d="M465.1035,78.1298 C465.1035,65.4468 460.8745,56.6958 444.0625,56.6958 C426.7585,56.6958 422.4325,67.8058 422.4325,82.7508 C422.4325,98.4818 424.0055,112.6408 444.0625,112.6408 C458.5165,112.6408 465.0055,106.0528 465.1035,89.6338 L450.3555,89.6338 C450.0605,99.0718 449.0775,102.2188 444.3575,102.2188 C439.1465,102.2188 438.3605,96.8108 438.3605,84.7168 C438.3605,73.8038 439.1465,67.1178 444.3575,67.1178 C448.5845,67.1178 450.3555,70.2638 450.3555,78.1298 L465.1035,78.1298 Z" id="Fill-25" fill="#FEFEFE"></path>
                <mask id="mask-2" fill="white">
                    <use xlink:href="#path-1"></use>
                </mask>
                <g id="Clip-28"></g>
                <polygon id="Fill-27" fill="#FEFEFE" mask="url(#mask-2)" points="531.272 111.264 547.2 111.264 547.2 0.378 531.272 0.378"></polygon>
                <polygon id="Fill-29" fill="#FEFEFE" mask="url(#mask-2)" points="561.948 170.745 577.876 170.745 577.876 0.378 561.948 0.378"></polygon>
                <path d="M11.0107,14.8022 L11.0107,15.1782 C11.0107,17.2802 10.6967,20.5722 7.6847,20.5722 C5.0177,20.5722 3.8567,18.7542 3.8567,11.5392 C3.8567,4.3242 5.0177,2.6932 7.6847,2.6932 C10.2577,2.5992 10.8847,4.9512 10.8847,7.0532 L10.8847,7.4302 L14.4567,7.4302 L14.4567,7.0222 C14.4567,4.6692 14.0807,0.0002 7.7157,0.0002 C2.0397,0.0002 0.2857,3.6342 0.2857,11.6342 C0.2857,19.6322 2.0397,23.2662 7.6847,23.2662 C12.9217,23.2662 14.5817,19.3182 14.5817,15.2722 L14.5817,14.8022 L11.0107,14.8022 Z M15.5877,22.8272 L19.3197,22.8272 L20.7617,17.3382 L27.3167,17.3382 L28.6967,22.8272 L32.4287,22.8272 L26.5327,0.4392 L21.9537,0.4392 L15.5877,22.8272 Z M21.4207,14.4882 L24.0867,3.4492 L24.1487,3.4492 L26.7207,14.4882 L21.4207,14.4882 Z M34.6257,22.8272 L38.0087,22.8272 L38.0087,5.7072 L38.0717,5.7072 L44.5667,22.8272 L48.9217,22.8272 L48.9217,0.4392 L45.5387,0.4392 L45.5387,17.1232 L45.4767,17.1232 L38.9807,0.4392 L34.6257,0.4392 L34.6257,22.8272 Z M51.1187,22.8272 L54.8507,22.8272 L56.2937,17.3382 L62.8477,17.3382 L64.2277,22.8272 L67.9597,22.8272 L62.0637,0.4392 L57.4857,0.4392 L51.1187,22.8272 Z M56.9517,14.4882 L59.6177,3.4492 L59.6807,3.4492 L62.2517,14.4882 L56.9517,14.4882 Z M70.1567,22.8272 L76.5207,22.8272 C83.5457,22.8272 84.4227,18.2512 84.4227,11.6332 C84.4227,5.0142 83.5457,0.4392 76.5207,0.4392 L70.1567,0.4392 L70.1567,22.8272 Z M73.7287,3.1322 L76.6777,3.1322 C79.7847,3.1322 80.8507,5.3282 80.8507,11.6332 C80.8507,18.1892 79.6277,20.1332 76.6777,20.1332 L73.7287,20.1332 L73.7287,3.1322 Z M88.0637,22.8272 L91.6347,22.8272 L91.6347,0.4392 L88.0637,0.4392 L88.0637,22.8272 Z M93.6757,22.8272 L97.4077,22.8272 L98.8497,17.3382 L105.4047,17.3382 L106.7847,22.8272 L110.5167,22.8272 L104.6207,0.4392 L100.0417,0.4392 L93.6757,22.8272 Z M99.5087,14.4882 L102.1737,3.4492 L102.2367,3.4492 L104.8087,14.4882 L99.5087,14.4882 Z M112.7137,22.8272 L116.0967,22.8272 L116.0967,5.7072 L116.1587,5.7072 L122.6547,22.8272 L127.0097,22.8272 L127.0097,0.4392 L123.6267,0.4392 L123.6267,17.1232 L123.5647,17.1232 L117.0687,0.4392 L112.7137,0.4392 L112.7137,22.8272 Z M139.4947,22.8272 L142.8777,22.8272 L142.8777,4.2022 L142.9407,4.2022 L147.4587,22.8272 L150.4697,22.8272 L154.9877,4.2022 L155.0497,4.2022 L155.0497,22.8272 L158.4327,22.8272 L158.4327,0.4392 L152.9797,0.4392 L149.0897,17.0292 L149.0267,17.0292 L145.0737,0.4392 L139.4947,0.4392 L139.4947,22.8272 Z M162.7647,22.8272 L175.1167,22.8272 L175.1167,19.8202 L166.3357,19.8202 L166.3357,12.6662 L174.3637,12.6662 L174.3637,9.6592 L166.3357,9.6592 L166.3357,3.4452 L174.8657,3.4452 L174.8657,0.4392 L162.7647,0.4392 L162.7647,22.8272 Z M178.4757,22.8272 L181.8587,22.8272 L181.8587,5.7072 L181.9217,5.7072 L188.4167,22.8272 L192.7727,22.8272 L192.7727,0.4392 L189.3897,0.4392 L189.3897,17.1232 L189.3267,17.1232 L182.8317,0.4392 L178.4757,0.4392 L178.4757,22.8272 Z M200.7737,22.8272 L204.3447,22.8272 L204.3447,3.4452 L209.5817,3.4452 L209.5817,0.4392 L195.4417,0.4392 L195.4417,3.4452 L200.7737,3.4452 L200.7737,22.8272 Z M208.3917,22.8272 L212.1237,22.8272 L213.5667,17.3382 L220.1217,17.3382 L221.5007,22.8272 L225.2327,22.8272 L219.3367,0.4392 L214.7587,0.4392 L208.3917,22.8272 Z M214.2257,14.4882 L216.8907,3.4492 L216.9537,3.4492 L219.5257,14.4882 L214.2257,14.4882 Z M227.0227,22.8272 L239.2497,22.8272 L239.2497,19.8202 L230.5937,19.8202 L230.5937,0.4392 L227.0227,0.4392 L227.0227,22.8272 Z M250.1347,22.8272 L253.7057,22.8272 L253.7057,12.4152 L260.2957,12.4152 L260.2957,22.8272 L263.8667,22.8272 L263.8667,0.4392 L260.2957,0.4392 L260.2957,9.4082 L253.7057,9.4082 L253.7057,0.4392 L250.1347,0.4392 L250.1347,22.8272 Z M268.1987,22.8272 L280.5507,22.8272 L280.5507,19.8202 L271.7697,19.8202 L271.7697,12.6662 L279.7987,12.6662 L279.7987,9.6592 L271.7697,9.6592 L271.7697,3.4452 L280.2997,3.4452 L280.2997,0.4392 L268.1987,0.4392 L268.1987,22.8272 Z M281.7757,22.8272 L285.5077,22.8272 L286.9507,17.3382 L293.5047,17.3382 L294.8847,22.8272 L298.6167,22.8272 L292.7207,0.4392 L288.1417,0.4392 L281.7757,22.8272 Z M287.6087,14.4882 L290.2747,3.4492 L290.3377,3.4492 L292.9087,14.4882 L287.6087,14.4882 Z M300.4057,22.8272 L312.6327,22.8272 L312.6327,19.8202 L303.9777,19.8202 L303.9777,0.4392 L300.4057,0.4392 L300.4057,22.8272 Z M316.1487,22.8272 L319.7197,22.8272 L319.7197,3.4452 L324.9567,3.4452 L324.9567,0.4392 L310.8177,0.4392 L310.8177,3.4452 L316.1487,3.4452 L316.1487,22.8272 Z M327.6267,22.8272 L331.1977,22.8272 L331.1977,12.4152 L337.7867,12.4152 L337.7867,22.8272 L341.3597,22.8272 L341.3597,0.4392 L337.7867,0.4392 L337.7867,9.4082 L331.1977,9.4082 L331.1977,0.4392 L327.6267,0.4392 L327.6267,22.8272 Z M350.5497,22.8272 L354.2817,22.8272 L355.7247,17.3382 L362.2787,17.3382 L363.6577,22.8272 L367.3907,22.8272 L361.4937,0.4392 L356.9167,0.4392 L350.5497,22.8272 Z M356.3827,14.4882 L359.0487,3.4492 L359.1117,3.4492 L361.6827,14.4882 L356.3827,14.4882 Z M368.7727,15.9002 L368.7727,16.4332 C368.7727,19.5692 370.0257,23.2662 375.5747,23.2662 C380.0937,23.2662 382.9757,21.2932 382.9757,16.5272 C382.9757,13.4212 381.5967,11.7272 378.4317,10.5982 L376.0147,9.7202 C373.6307,8.8102 372.6567,7.8382 372.6567,5.9242 C372.6567,3.5402 374.1327,2.6932 375.6697,2.6932 C377.9297,2.6932 378.8077,3.8852 378.8077,5.9242 L378.8077,6.3952 L382.3797,6.3952 L382.3797,5.8932 C382.3797,3.5712 381.7827,0.0002 376.0467,0.0002 C371.8747,0.0002 369.0867,2.2542 369.0867,6.3322 C369.0867,9.5312 370.4947,11.2262 373.7557,12.4802 L376.2027,13.3272 C378.2117,13.9232 379.4037,14.9592 379.4037,17.3112 C379.4037,18.9422 378.2417,20.5722 376.0147,20.5722 C373.5677,20.5722 372.3437,19.1932 372.3437,16.4642 L372.3437,15.9002 L368.7727,15.9002 Z M385.6757,15.9002 L385.6757,16.4332 C385.6757,19.5692 386.9297,23.2662 392.4797,23.2662 C396.9957,23.2662 399.8787,21.2932 399.8787,16.5272 C399.8787,13.4212 398.5007,11.7272 395.3347,10.5982 L392.9187,9.7202 C390.5327,8.8102 389.5607,7.8382 389.5607,5.9242 C389.5607,3.5402 391.0347,2.6932 392.5727,2.6932 C394.8317,2.6932 395.7117,3.8852 395.7117,5.9242 L395.7117,6.3952 L399.2817,6.3952 L399.2817,5.8932 C399.2817,3.5712 398.6877,0.0002 392.9487,0.0002 C388.7777,0.0002 385.9897,2.2542 385.9897,6.3322 C385.9897,9.5312 387.3997,11.2262 390.6587,12.4802 L393.1067,13.3272 C395.1147,13.9232 396.3077,14.9592 396.3077,17.3112 C396.3077,18.9422 395.1467,20.5722 392.9187,20.5722 C390.4707,20.5722 389.2467,19.1932 389.2467,16.4642 L389.2467,15.9002 L385.6757,15.9002 Z M410.2607,20.5722 C408.1277,20.5722 406.4327,19.2242 406.4327,11.5392 C406.4327,4.0102 408.1277,2.6932 410.2607,2.6932 C412.3947,2.6932 414.0887,4.0102 414.0887,11.5392 C414.0887,19.2242 412.3947,20.5722 410.2607,20.5722 L410.2607,20.5722 Z M410.2607,23.2662 C415.4047,23.2662 417.6597,19.6312 417.6597,11.6332 C417.6597,3.6342 415.4047,0.0002 410.2607,0.0002 C405.1167,0.0002 402.8617,3.6342 402.8617,11.6332 C402.8617,19.6312 405.1167,23.2662 410.2607,23.2662 L410.2607,23.2662 Z M431.6517,14.8022 L431.6517,15.1782 C431.6517,17.2802 431.3377,20.5722 428.3247,20.5722 C425.6567,20.5722 424.4957,18.7542 424.4957,11.5392 C424.4957,4.3242 425.6567,2.6932 428.3247,2.6932 C430.8987,2.5992 431.5257,4.9512 431.5257,7.0532 L431.5257,7.4302 L435.0977,7.4302 L435.0977,7.0222 C435.0977,4.6692 434.7217,0.0002 428.3567,0.0002 C422.6797,0.0002 420.9257,3.6342 420.9257,11.6342 C420.9257,19.6322 422.6797,23.2662 428.3247,23.2662 C433.5627,23.2662 435.2227,19.3182 435.2227,15.2722 L435.2227,14.8022 L431.6517,14.8022 Z M438.2047,22.8272 L441.7757,22.8272 L441.7757,0.4392 L438.2047,0.4392 L438.2047,22.8272 Z M443.8167,22.8272 L447.5487,22.8272 L448.9907,17.3382 L455.5457,17.3382 L456.9257,22.8272 L460.6567,22.8272 L454.7617,0.4392 L450.1827,0.4392 L443.8167,22.8272 Z M449.6497,14.4882 L452.3157,3.4492 L452.3787,3.4492 L454.9487,14.4882 L449.6497,14.4882 Z M464.7997,22.8272 L468.3697,22.8272 L468.3697,3.4452 L473.6077,3.4452 L473.6077,0.4392 L459.4687,0.4392 L459.4687,3.4452 L464.7997,3.4452 L464.7997,22.8272 Z M476.1197,22.8272 L479.6907,22.8272 L479.6907,0.4392 L476.1197,0.4392 L476.1197,22.8272 Z M490.7327,20.5722 C488.5987,20.5722 486.9047,19.2242 486.9047,11.5392 C486.9047,4.0102 488.5987,2.6932 490.7327,2.6932 C492.8657,2.6932 494.5607,4.0102 494.5607,11.5392 C494.5607,19.2242 492.8657,20.5722 490.7327,20.5722 L490.7327,20.5722 Z M490.7327,23.2662 C495.8767,23.2662 498.1317,19.6312 498.1317,11.6332 C498.1317,3.6342 495.8767,0.0002 490.7327,0.0002 C485.5887,0.0002 483.3337,3.6342 483.3337,11.6332 C483.3337,19.6312 485.5887,23.2662 490.7327,23.2662 L490.7327,23.2662 Z M501.9307,22.8272 L505.3137,22.8272 L505.3137,5.7072 L505.3767,5.7072 L511.8707,22.8272 L516.2267,22.8272 L516.2267,0.4392 L512.8437,0.4392 L512.8437,17.1232 L512.7817,17.1232 L506.2847,0.4392 L501.9307,0.4392 L501.9307,22.8272 Z" id="Fill-30" fill="#FEFEFE" mask="url(#mask-2)"></path>
                <polygon id="Fill-31" fill="#FEFEFE" mask="url(#mask-2)" points="590.2236 147.9111 604.1006 147.9111 604.1006 152.2631 595.8686 152.2631 595.8686 156.8381 603.5966 156.8381 603.5966 161.1901 595.8686 161.1901 595.8686 166.4061 604.4696 166.4061 604.4696 170.7571 590.2236 170.7571"></polygon>
                <path d="M613.8105,166.7895 L615.3235,166.7895 C617.9105,166.7895 618.8505,165.7975 618.8505,158.9505 C618.8505,153.3825 618.3805,151.8785 615.3895,151.8785 L613.8105,151.8785 L613.8105,166.7895 Z M608.1655,147.9115 L616.5325,147.9115 C622.1105,147.9115 624.4965,150.6625 624.4965,158.5985 C624.4965,166.8855 623.3865,170.7575 615.9605,170.7575 L608.1655,170.7575 L608.1655,147.9115 Z" id="Fill-32" fill="#FEFEFE" mask="url(#mask-2)"></path>
                <polygon id="Fill-33" fill="#FEFEFE" mask="url(#mask-2)" points="627.8887 147.9111 636.1547 147.9111 639.1117 162.9181 639.1787 162.9181 642.0347 147.9111 650.1997 147.9111 650.1997 170.7571 644.9577 170.7571 644.9577 152.9671 644.8907 152.9671 641.2277 170.7571 636.8607 170.7571 632.9957 152.9671 632.9287 152.9671 632.9287 170.7571 627.8887 170.7571"></polygon>
                <path d="M661.6572,167.6215 C663.9422,167.6215 664.2782,165.6055 664.2782,159.3335 C664.2782,153.0625 663.9422,151.0465 661.6572,151.0465 C659.4062,151.0465 659.1032,153.0625 659.1032,159.3335 C659.1032,165.6055 659.4062,167.6215 661.6572,167.6215 M661.6912,171.2045 C654.2652,171.2045 653.2582,166.5975 653.2582,159.3335 C653.2582,152.0705 654.2652,147.4625 661.6912,147.4625 C669.6542,147.4625 670.1252,152.9985 670.1252,159.3335 C670.1252,165.6695 669.6542,171.2045 661.6912,171.2045" id="Fill-34" fill="#FEFEFE" mask="url(#mask-2)"></path>
                <polygon id="Fill-35" fill="#FEFEFE" mask="url(#mask-2)" points="673.3828 147.9111 679.8678 147.9111 684.5048 162.7581 684.5708 162.7581 684.5708 147.9111 689.8138 147.9111 689.8138 170.7571 683.4298 170.7571 678.4898 155.0151 678.4228 155.0151 678.4228 170.7571 673.3828 170.7571"></polygon>
                <polygon id="Fill-36" fill="#FEFEFE" mask="url(#mask-2)" points="697.4395 152.2626 692.3995 152.2626 692.3995 147.9106 708.1255 147.9106 708.1255 152.2626 703.0855 152.2626 703.0855 170.7576 697.4395 170.7576"></polygon>
                <path d="M717.4658,167.6215 C719.7508,167.6215 720.0868,165.6055 720.0868,159.3335 C720.0868,153.0625 719.7508,151.0465 717.4658,151.0465 C715.2148,151.0465 714.9118,153.0625 714.9118,159.3335 C714.9118,165.6055 715.2148,167.6215 717.4658,167.6215 M717.4998,171.2045 C710.0738,171.2045 709.0668,166.5975 709.0668,159.3335 C709.0668,152.0705 710.0738,147.4625 717.4998,147.4625 C725.4628,147.4625 725.9338,152.9985 725.9338,159.3335 C725.9338,165.6695 725.4628,171.2045 717.4998,171.2045" id="Fill-37" fill="#FEFEFE" mask="url(#mask-2)"></path>
                <polygon id="Fill-38" fill="#FEFEFE" mask="url(#mask-2)" points="729.4268 147.9111 735.9118 147.9111 740.5488 162.7581 740.6148 162.7581 740.6148 147.9111 745.8578 147.9111 745.8578 170.7571 739.4738 170.7571 734.5338 155.0151 734.4668 155.0151 734.4668 170.7571 729.4268 170.7571"></polygon>
            </g>
        </g>
    </g>
</svg>