<svg width="1440px" height="101px" viewBox="0 0 1440 101" version="1.1" xmlns="http://www.w3.org/2000/svg" xmlns:xlink="http://www.w3.org/1999/xlink">
    <defs>
        <polygon id="path-1" points="0.0417131034 1.03125 32.7011752 1.03125 32.7011752 4.57226895 0.0417131034 4.57226895"></polygon>
        <polygon id="path-3" points="0.0466153846 1.03125 14.4085385 1.03125 14.4085385 4.55715185 0.0466153846 4.55715185"></polygon>
    </defs>
    <g id="Design" stroke="none" stroke-width="1" fill="none" fill-rule="evenodd">
        <g id="PageBuilder" transform="translate(0.000000, -323.000000)">
            <g id="Intro" transform="translate(-1.000000, 322.000000)">
                <g id="Background" transform="translate(-0.000000, 0.000000)">
                    <g id="Paint-Border" transform="translate(0.000000, 0.649268)">
                        <path d="M450.982879,5.40735957 C462.219291,5.43535957 473.444877,4.26335957 484.695721,4.99535957 C486.272571,5.09935957 488.112831,4.91935957 490,3.41935957 C489.390188,3.11135957 489.133995,2.87535957 488.874194,2.86335957 C476.082583,2.27535957 463.29458,2.73535957 450.506577,2.97935957 C449.788515,2.99135957 448.954985,3.32335957 449.001894,4.28735957 C449.081277,5.65535957 450.217909,5.40335957 450.982879,5.40735957" id="Fill-1" fill="#FFFFFF"></path>
                        <g id="Group-5" transform="translate(511.000000, 0.000000)">
                            <mask id="mask-2" fill="white">
                                <use xlink:href="#path-1"></use>
                            </mask>
                            <g id="Clip-4"></g>
                            <path d="M5.63154759,4.363875 L6.00589931,4.138875 C7.34338897,3.223875 8.80081655,3.797625 10.2037269,3.797625 C17.7198372,3.801375 25.2323131,3.673875 32.7011752,2.413875 C22.1466372,1.056375 11.5993683,0.385125 0.0417131034,1.877625 C2.37868552,3.235125 4.23590621,2.563875 5.35169241,4.026375 L5.63154759,4.363875 Z" id="Fill-3" fill="#FFFFFF" mask="url(#mask-2)"></path>
                        </g>
                        <path d="M241,12.8626929 C235.97905,11.4026929 230.989525,11.6306929 226,13.2746929 C231.027933,14.3786929 236.041899,14.5226929 241,12.8626929" id="Fill-6" fill="#FFFFFF"></path>
                        <g id="Group-10" transform="translate(395.000000, 0.000000)">
                            <mask id="mask-4" fill="white">
                                <use xlink:href="#path-3"></use>
                            </mask>
                            <g id="Clip-9"></g>
                            <path d="M14.4085385,2.485125 C9.56584615,1.045125 4.79238462,1.487625 0.0466153846,3.250125 C4.85469231,3.748875 9.70776923,4.307625 14.4085385,2.485125" id="Fill-8" fill="#FFFFFF" mask="url(#mask-4)"></path>
                        </g>
                        <path d="M95,17.79151 C90.6829904,15.94351 86.3471458,17.22351 82,18.01951 C86.3320777,19.28351 90.6867575,19.85951 95,17.79151" id="Fill-11" fill="#FFFFFF"></path>
                        <path d="M165,16.018566 C160.687342,14.322566 154.400786,14.670566 152,16.606566 C156.27982,17.074566 160.249509,17.574566 165,16.018566" id="Fill-13" fill="#FFFFFF"></path>
                        <path d="M694,4.2553765 C689.846068,2.1673765 685.565713,2.1713765 681,3.4353765 C685.128647,5.4753765 689.499305,6.2833765 694,4.2553765" id="Fill-15" fill="#FFFFFF"></path>
                        <path d="M916,5.08096054 C907.81601,2.51426341 899.501344,1.45402299 891,2.27017929 C899.176523,4.71864817 907.323178,7.47222221 916,5.08096054" id="Fill-17" fill="#FFFFFF"></path>
                        <path d="M885.187569,9.34212445 C890.91084,9.75012445 896.63411,10.1421245 902.36478,10.4981245 C902.886422,10.5341245 903.463559,10.3381245 904,8.95012445 C897.518313,8.45012445 891.36219,7.97012445 885.209767,7.50612445 C884.647429,7.46212445 884.0037,7.57812445 884,8.35412445 C884,9.08212445 884.617832,9.30212445 885.187569,9.34212445" id="Fill-19" fill="#FFFFFF"></path>
                        <path d="M929,10.4217409 C924.200688,8.81374093 919.573394,8.66574093 914,8.66574093 C917.84633,11.3817409 925.545872,12.1297409 929,10.4217409" id="Fill-21" fill="#FFFFFF"></path>
                        <path d="M776.755634,8.86030256 C777.49107,8.94830256 778.333608,9.20830256 778.961941,8.92030256 C780.357841,8.28430256 782.963998,9.98830256 782.999698,7.91630256 C783.031829,6.06030256 780.489934,7.50030256 779.122595,7.18830256 C778.194375,6.97230256 777.012679,6.70030256 776.1273,7.59630256 C775.802423,8.40830256 776.13087,8.78430256 776.755634,8.86030256" id="Fill-23" fill="#FFFFFF"></path>
                        <path d="M865,5.08610081 C862.609756,4.04610081 860.247967,3.55010081 858,5.38610081 C860.379573,5.64610081 862.748476,6.41410081 865,5.08610081" id="Fill-25" fill="#FFFFFF"></path>
                        <path d="M738.692601,8.93244924 C740.618261,8.59244924 742.763007,9.62044924 745,7.79644924 C742.759163,6.81244924 740.82966,7.11244924 738.957812,7.10044924 C738.511951,7.09644924 737.943093,7.32044924 738.004591,7.88844924 C738.043028,8.27644924 738.511951,8.96444924 738.692601,8.93244924" id="Fill-27" fill="#FFFFFF"></path>
                        <path d="M0.998920228,101 L1441,101 L1441,12.9840778 C1428.34044,13.3303635 1419.03289,13.5359707 1413.07735,13.6008993 C1412.63104,13.896685 1412.15594,13.947185 1411.65925,13.7560064 C1408.01322,16.1980421 1403.94608,15.4152921 1399.96532,15.2962564 C1397.38467,15.3683993 1394.80042,15.4477564 1392.21616,15.5162921 C1391.92103,15.916685 1391.62949,16.3170778 1391.34875,16.7210778 C1386.00388,16.8797921 1380.65181,17.0348993 1375.30694,17.1900064 L1375.30334,17.1900064 C1365.20748,17.204435 1355.11161,17.2188635 1345.01215,17.2332921 C1324.53968,17.2585421 1304.06002,17.2873993 1283.58395,17.3090421 C1272.69625,16.295435 1261.80136,16.8184707 1250.91006,17.1214707 C1248.14585,17.103435 1245.38163,17.0853993 1242.61742,17.0637564 C1241.53764,17.0601493 1240.45787,17.0565421 1239.3745,17.0493278 C1237.36973,17.0565421 1235.36495,17.0601493 1233.36017,17.0673635 C1232.7591,16.977185 1232.16163,16.8870064 1231.56056,16.800435 C1228.494,16.5876135 1225.43105,16.3783993 1222.3681,16.1655778 C1221.30273,16.1619707 1220.23735,16.1619707 1219.17558,16.1583635 C1218.47732,16.6128635 1217.52353,16.3892207 1216.85047,16.9086493 C1216.74969,16.8401135 1216.7101,16.7571493 1216.59492,16.6922207 C1215.81029,16.4072564 1215.02565,16.2882207 1214.27701,16.8148635 L1213.73353,16.901435 L1213.19364,16.8437207 C1212.13906,17.7274707 1210.74976,16.8942207 1209.64839,17.5362921 C1208.88535,17.5615421 1208.12591,17.5795778 1207.36647,17.6012207 C1205.92318,18.7302564 1204.04798,17.2729707 1202.60828,18.4020064 L1202.11878,18.4957921 L1201.63289,18.4056135 C1200.1356,19.3723278 1198.37198,18.214435 1196.8531,19.0043993 C1194.9779,18.9538993 1193.09909,18.9106135 1191.22389,18.8565064 C1190.83877,19.047685 1190.60842,19.3578993 1190.46445,19.729435 C1189.17952,19.6608993 1187.90179,19.5851493 1186.62046,19.5130064 C1186.63126,19.4697207 1186.64566,19.4480778 1186.65646,19.3975778 C1186.72844,19.0837564 1186.59167,18.795185 1186.26414,18.517435 C1185.16637,18.3731493 1184.0686,18.2324707 1182.97444,18.0845778 C1182.42015,17.6192564 1181.76149,17.5867921 1181.08843,17.5940064 C1180.22822,17.8284707 1179.3752,17.9799707 1178.51858,17.5795778 C1178.08307,17.4172564 1177.67636,17.4677564 1177.29844,17.7418993 C1175.80115,17.6986135 1174.30747,17.6517207 1172.81019,17.6012207 C1172.35668,17.9150421 1171.89958,18.2324707 1171.44607,18.5462921 C1169.9056,18.5138278 1168.36513,18.4813635 1166.82105,18.441685 C1165.68009,18.3118278 1164.53914,18.1819707 1163.40178,18.0485064 C1163.05985,17.8933993 1162.70352,17.8176493 1162.3256,17.8320778 C1162.27521,17.5182564 1162.19963,17.2152564 1162.09525,16.9158635 C1155.36108,16.4577564 1148.6197,16.0032564 1141.88193,15.5451493 C1141.73436,15.8373278 1141.61199,16.143935 1141.52201,16.4649707 C1138.86217,16.270185 1136.20233,16.0826135 1133.54609,15.891435 C1132.46992,15.891435 1131.39015,15.8950421 1130.31398,15.8950421 C1128.39198,16.9302921 1126.24684,15.4910421 1124.32125,16.4541493 L1122.09692,16.4541493 C1120.23251,17.6192564 1118.05857,16.0068635 1116.18337,17.1070421 C1115.50311,17.1178635 1114.82285,17.128685 1114.1426,17.1395064 C1113.94464,17.1250778 1113.76468,17.1719707 1113.60631,17.2873993 C1113.49114,17.3667564 1113.46234,17.4857921 1113.50193,17.6300778 C1113.39756,17.6156493 1113.30758,17.5940064 1113.1996,17.583185 C1111.86788,17.5940064 1110.50377,17.0096493 1109.21164,17.7960064 L1108.68255,17.8933993 L1108.14627,17.8140421 C1106.28546,18.9791493 1104.13312,17.406435 1102.25791,18.4452921 L1100.12716,18.466935 C1098.61548,19.4192207 1096.83026,18.239685 1095.30418,19.0909707 C1094.55914,19.0945778 1093.8177,19.1017921 1093.07626,19.1090064 C1090.80154,20.3029707 1088.31086,18.5895778 1086.02535,19.6500778 C1085.3091,19.6572921 1084.59285,19.6608993 1083.8694,19.6681135 C1083.34032,19.9242207 1082.76444,20.0685064 1082.24255,20.3462564 C1081.45072,20.7213993 1080.64809,19.7222207 1079.86705,20.3534707 C1079.86345,20.3570778 1079.86345,20.360685 1079.85985,20.3642921 C1078.57852,19.2965778 1076.65653,20.2452564 1075.3932,19.1126135 C1072.09989,18.8853635 1068.81019,18.6581135 1065.52049,18.4344707 C1065.13897,18.6653278 1065.04179,18.9755421 1065.08138,19.3218278 C1065.06698,19.3182207 1065.05259,19.3182207 1065.03819,19.3146135 C1063.24577,18.5859707 1061.41376,18.441685 1059.54575,18.9647207 C1058.45518,18.971935 1057.36461,18.9827564 1056.27404,18.9899707 C1056.08328,19.2677207 1055.89612,19.5490778 1055.71616,19.8412564 C1053.50623,19.8015778 1051.2963,19.7582921 1049.08276,19.7150064 C1046.81164,19.0332564 1044.22379,19.6717207 1042.17942,18.0412921 C1040.67494,17.8753635 1039.17766,17.709435 1037.67678,17.5435064 L1037.19088,17.2585421 L1036.90654,17.2946135 C1036.82376,16.9627564 1036.6474,16.674185 1036.27667,16.4830064 L1035.85916,16.6200778 L1035.47404,16.4000421 C1034.00555,15.2962564 1032.45428,15.260185 1030.84182,16.0501493 C1029.68287,16.3423278 1028.54191,16.295435 1027.43334,15.8301135 C1026.43276,14.8092921 1025.23061,15.0401493 1024.02847,15.260185 C1023.91689,15.4008635 1023.89529,15.5487564 1023.83411,15.6930421 L1020.5336,14.2357564 C1017.44186,13.8930778 1014.28893,13.8606135 1011.39154,12.5007207 C1006.44978,12.1616493 1001.50443,11.8189707 996.559077,11.4762921 L996.155963,11.6710778 L995.74205,11.497935 C993.362954,12.5981135 990.789498,11.6169707 988.356413,12.1760778 C988.349214,12.1905064 988.331218,12.1977207 988.32402,12.2157564 C988.316821,12.2013278 988.306024,12.1832921 988.295226,12.1688635 C986.833935,12.0353993 985.376243,11.9055421 983.918552,11.7720778 C980.8556,12.9516135 977.709865,12.4249707 974.582127,12.2518278 L974.175413,12.4538278 L973.743505,12.2987207 C970.982889,13.3736493 968.150288,13.0093278 965.321287,12.7207564 C964.662626,12.735185 964.007565,12.7460064 963.348904,12.7568278 C963.12935,12.8253635 962.916995,12.8938993 962.701041,12.962435 C959.990815,12.7784707 957.26979,12.7387921 954.53077,12.9516135 C949.650202,12.9480064 944.967593,11.5412207 940.166209,10.9568635 C938.276609,10.7260064 936.577768,10.8883278 935.030096,12.1255778 C935.368424,12.8181493 936.736135,12.8073278 936.937692,13.5540064 C936.336619,13.6586135 935.735546,13.7596135 935.256848,14.224935 C935.109279,14.325935 934.947313,14.3872564 934.785348,14.4413635 C934.238263,14.3980778 933.694778,14.3475778 933.147694,14.3078993 C927.255741,13.896685 921.324196,13.9904707 915.475433,12.9840778 C916.065708,12.3167564 917.33264,12.5548278 917.703362,11.119185 C915.029128,10.3292207 912.383687,9.96129211 909.67706,10.5420421 C908.96801,10.6971493 907.369948,10.8378278 908.856434,12.2446135 C904.321393,12.482685 899.786353,12.4610421 895.265709,12.1363993 C888.506339,11.0903278 881.725374,10.2246135 874.930012,9.54647068 C871.697896,9.12443497 868.469379,8.73847068 865.212068,8.51122068 C861.479658,8.13968497 857.747247,7.76814925 854.014837,7.39661354 C853.964448,7.10443497 853.917658,6.81586354 853.867268,6.52368497 C854.723887,6.09082782 856.077201,6.85193497 856.678274,5.16379211 C852.481562,3.58386354 848.144479,3.01393497 843.803798,2.43679211 C831.566387,0.82079211 819.343373,1.06247068 807.134756,2.80111354 C803.179193,2.80832782 799.194836,2.17347068 795.25367,3.31693497 C797.23685,4.14657782 799.281218,4.15018497 801.339982,4.0347564 L801.339982,4.03836354 C801.847475,5.07361354 804.082602,4.48204211 803.600304,6.44432782 C800.526554,6.61386354 797.413213,6.18461354 794.382654,7.01786354 C789.494888,7.7717564 784.614321,8.48957782 779.694162,8.87914925 C774.331297,6.54172068 768.766874,6.55614925 763.098074,7.80782782 C765.095651,8.44268497 767.118423,8.86472068 769.144794,9.17854211 C762.126279,9.16411354 755.122161,9.55368497 748.161234,10.5240064 C735.5603,9.71961354 722.952168,9.04868497 710.318841,9.09557782 C708.443637,8.28397068 707.000343,8.26232782 705.348292,9.07754211 C705.251113,9.06672068 705.157533,9.06311354 705.060353,9.04868497 C699.254782,8.23707782 693.427615,8.12164925 687.596848,8.14689925 C680.344383,7.39661354 673.059524,7.1657564 665.79986,7.03589925 C646.968644,4.23314925 628.029452,3.07164925 608.993079,3.33857782 C610.529954,3.00672068 612.056031,2.63157782 613.582108,2.20593497 C607.297838,1.59993497 601.031564,1.17068497 595.017236,3.39989925 C584.334697,3.27364925 573.680951,2.3682564 563.009209,2.04361354 C560.540131,1.96786354 558.387787,2.90211354 555.940304,4.30889925 C558.081851,5.16018497 560.270188,5.10247068 561.450739,6.95293497 C553.777162,7.11886354 546.103586,7.37497068 538.433609,7.4182564 C530.785227,7.46514925 523.129647,8.00982782 515.492063,7.17657782 C514.502272,5.66518497 513.051779,6.55254211 511.784847,6.46957782 C508.376368,7.11164925 504.967889,6.45154211 501.55941,6.42989925 C500.767578,6.46236354 499.990143,6.54532782 499.360276,7.1152564 C498.823989,7.27757782 498.291302,7.55172068 497.747817,7.58779211 C477.235757,8.92243497 456.727296,8.41022068 436.204438,7.97736354 C427.411499,7.79339925 418.596964,6.44432782 409.782429,7.6960064 C409.465696,7.69239925 409.145364,7.68518497 408.828631,7.68157782 C401.716535,7.5950064 394.600841,7.50843497 387.488746,7.4182564 C387.51754,6.99622068 387.546334,6.57418497 387.575128,6.15214925 C388.755678,5.59304211 390.39693,6.01868497 391.872618,3.74979211 C360.170526,1.47368497 329.227873,0.304970681 298.396796,5.89604211 L298.393197,5.89604211 C287.613478,6.2567564 276.830159,6.61747068 266.054039,6.97097068 C266.068436,7.37497068 266.079234,7.77897068 266.093631,8.18297068 C269.055804,9.53564925 272.176344,7.66714925 275.163712,8.43907782 C276.974129,9.34447068 278.957309,8.84307782 280.84331,9.12804211 C282.171429,9.32643497 283.783888,9.18214925 283.517544,11.3320064 C277.805553,11.8838993 271.996382,11.2887207 266.367173,12.785685 L266.363574,12.785685 C265.992852,12.8073278 265.62573,12.8325778 265.255008,12.861435 C264.419985,12.8289707 263.54537,12.634185 262.749938,12.7928993 C250.710486,15.209685 238.54146,16.4325064 226.293252,16.8040421 C206.349872,17.4100421 186.41369,17.9727564 166.56029,20.1226135 C164.778667,19.375935 162.896266,19.5851493 161.064253,19.6176135 C143.100454,19.9206135 125.133056,19.5743278 107.194451,21.3346135 C95.0038305,22.5249707 82.7304273,23.163435 70.4426272,22.6981135 C72.3610213,20.3895421 70.3238523,20.5410421 68.9813364,20.4472564 C64.0467804,20.1117921 59.1086252,20.2524707 54.1812678,20.7213993 C51.528629,20.9775064 48.6744329,20.259685 45.838233,22.229185 C50.6468156,24.2095064 55.2646386,21.9045421 59.6017209,23.2608278 C59.3893658,23.4520064 59.1734115,23.6359707 58.9574572,23.8235421 C57.4169832,24.047185 55.8765091,24.3718278 54.3288366,24.4728278 C48.0733601,24.8876493 41.55154,24.274435 35.634392,25.8976493 C30.6098551,27.2755778 25.7148908,28.996185 20.4851973,29.6382564 C17.2134895,30.0458635 13.9633772,30.713185 10.7384595,31.4670778 L0.998920228,31.4670778 L0.998920228,101 Z" id="Fill-41" fill="#FFFFFF"></path>
                    </g>
                </g>
            </g>
        </g>
    </g>
</svg>